<?xml version="1.0" encoding="UTF-8"?>
<svg xmlns="http://www.w3.org/2000/svg" xmlns:xlink="http://www.w3.org/1999/xlink" width="20px" height="20px" viewBox="0 0 20 20" version="1.1">
<g id="surface1">
<path style=" stroke:none;fill-rule:nonzero;fill:rgb(9.019608%,47.058824%,94.901961%);fill-opacity:1;" d="M 10 0 C 15.523438 0 20 4.476562 20 10 C 20 15.523438 15.523438 20 10 20 C 4.476562 20 0 15.523438 0 10 C 0 4.476562 4.476562 0 10 0 Z M 10 0 "/>
<path style=" stroke:none;fill-rule:nonzero;fill:rgb(99.215686%,99.215686%,99.215686%);fill-opacity:1;" d="M 10.796875 15.644531 L 10.796875 10.292969 L 12.59375 10.292969 L 12.863281 8.207031 L 10.796875 8.207031 L 10.796875 6.875 C 10.796875 6.269531 10.964844 5.859375 11.832031 5.859375 L 12.9375 5.859375 L 12.9375 3.992188 C 12.402344 3.9375 11.863281 3.910156 11.328125 3.910156 C 9.734375 3.910156 8.644531 4.882812 8.644531 6.667969 L 8.644531 8.207031 L 6.839844 8.207031 L 6.839844 10.292969 L 8.644531 10.292969 L 8.644531 15.644531 Z M 10.796875 15.644531 "/>
</g>
</svg>
