<svg version="1.1" id="Layer_1" xmlns="http://www.w3.org/2000/svg" xmlns:xlink="http://www.w3.org/1999/xlink" x="0px" y="0px"
	 width="100%" viewBox="0 0 1080 1080" enable-background="new 0 0 1080 1080" xml:space="preserve">
<path fill="#FFFFFF" opacity="1.000000" stroke="none" 
	d="
M635.000000,1081.000000 
	C424.857513,1081.000000 215.215057,1080.989624 5.572622,1081.085205 
	C1.958535,1081.086914 0.894676,1080.489014 0.895906,1076.573608 
	C1.008017,719.614807 1.009606,362.656006 0.882856,5.697251 
	C0.881377,1.532019 1.857056,0.895573 5.801726,0.896803 
	C362.593872,1.008025 719.386047,1.007719 1076.178223,0.899673 
	C1080.080933,0.898491 1081.121216,1.468958 1081.119629,5.677111 
	C1080.990112,362.469238 1080.989624,719.261414 1081.122314,1076.053589 
	C1081.124023,1080.426514 1080.037354,1081.104858 1075.947510,1081.101562 
	C929.131775,1080.980347 782.315857,1081.000000 635.000000,1081.000000 
z"/>
<path fill="#070707" opacity="1.000000" stroke="none" 
	d="
M426.231384,832.066711 
	C427.777100,825.341431 429.358673,819.051514 430.619965,812.698120 
	C431.409058,808.723328 433.935333,811.074280 435.574097,811.257141 
	C437.217468,811.440491 439.789795,811.245300 439.024261,814.602539 
	C434.460480,834.617737 430.016144,854.660217 425.506531,874.806030 
	C427.957275,875.844604 428.798309,873.428528 430.008362,872.133789 
	C442.064697,859.234314 454.246094,846.442139 465.949738,833.227844 
	C470.144775,828.491272 473.379547,829.266235 475.134430,835.137390 
	C480.363159,852.630188 486.220245,869.934998 491.828522,887.314392 
	C492.225739,888.545349 492.237183,889.957886 493.797943,891.019226 
	C497.533875,874.393372 501.231659,857.936401 504.929993,841.479614 
	C505.585815,838.561157 506.611786,835.668945 506.818054,832.719299 
	C507.161377,827.809326 509.282196,827.154907 513.601135,828.539673 
	C516.053894,829.326111 516.263794,830.326050 515.804138,832.376221 
	C510.132355,857.673096 504.500702,882.979004 498.808777,908.271301 
	C498.551605,909.414124 498.615387,911.415344 496.652435,910.922302 
	C494.138336,910.290771 491.102234,910.862549 489.951324,907.074524 
	C485.801117,893.414673 481.335449,879.850525 476.974335,866.254883 
	C474.349365,858.071594 471.697388,849.896973 469.045319,841.680481 
	C466.977600,842.377502 466.180145,843.948059 465.077454,845.137817 
	C450.923523,860.409485 436.817108,875.725281 422.650299,890.984924 
	C421.507812,892.215576 420.787292,894.025879 418.289734,893.599487 
	C414.555023,892.961853 412.601562,892.337341 413.794098,887.442444 
	C418.238403,869.200867 422.070221,850.810059 426.231384,832.066711 
z"/>
<path fill="#070707" opacity="1.000000" stroke="none" 
	d="
M634.296631,166.186859 
	C635.132080,161.191391 635.878357,156.622437 636.677002,151.732559 
	C634.164856,152.001892 633.505066,153.904526 632.462463,155.154007 
	C620.941223,168.961121 609.497314,182.832687 598.013611,196.671204 
	C594.145142,201.332993 591.983032,200.994949 589.819946,195.425095 
	C583.270508,178.560867 576.739319,161.689560 570.180237,144.829117 
	C569.618408,143.384995 569.496033,141.673126 567.506042,140.301804 
	C565.637512,151.572174 563.818420,162.472687 562.026123,173.377625 
	C560.542542,182.404541 558.961182,191.418564 557.693115,200.476089 
	C557.231140,203.775696 555.846069,204.545868 552.821960,203.826126 
	C550.311646,203.228668 548.296143,203.092270 548.947998,199.292313 
	C553.222351,174.375244 557.190308,149.405716 561.408325,124.478706 
	C561.651978,123.039154 560.860107,120.012039 563.502197,120.341415 
	C565.927673,120.643776 569.023804,119.902756 570.420959,123.741272 
	C575.415771,137.463852 580.818298,151.038101 586.072449,164.666199 
	C589.055420,172.403229 592.049866,180.135818 595.298096,188.540375 
	C602.901794,179.310822 610.158447,170.504562 617.412842,161.696472 
	C624.504456,153.085983 631.850220,144.666901 638.558472,135.767349 
	C641.258911,132.184692 643.967529,133.489136 646.899963,134.037888 
	C648.978577,134.426895 647.964722,136.210938 647.787476,137.305435 
	C644.756104,156.022781 641.651550,174.728287 638.553528,193.434799 
	C637.412170,200.326385 636.049988,207.189316 635.183044,214.114700 
	C634.811096,217.086060 633.413208,217.555328 631.298279,216.560822 
	C629.578735,215.752243 625.807312,217.761520 626.663086,212.907578 
	C629.377563,197.511383 631.720764,182.049713 634.296631,166.186859 
z"/>
<path fill="#070707" opacity="1.000000" stroke="none" 
	d="
M824.299561,386.820160 
	C823.317078,382.778809 819.487488,378.728516 821.262939,375.904846 
	C822.891663,373.314453 827.881653,372.782837 831.435974,371.466705 
	C852.447144,363.686462 873.496765,356.009094 894.466187,348.118408 
	C897.886047,346.831512 899.579285,346.805603 900.910645,350.842926 
	C904.235474,360.924744 908.381714,370.735413 911.715698,380.814514 
	C922.196594,412.499573 900.426147,440.837952 867.582703,437.989014 
	C851.253174,436.572510 840.609619,426.637848 834.059204,412.273590 
	C830.349854,404.139435 827.623901,395.556793 824.299561,386.820160 
z"/>
<path fill="#070707" opacity="1.000000" stroke="none" 
	d="
M209.844696,689.734070 
	C203.494751,692.297607 197.480270,694.670410 191.503754,697.135193 
	C189.990372,697.759277 188.811310,698.343384 188.040863,696.169434 
	C183.064819,682.128235 175.484589,669.021667 172.635757,654.226562 
	C169.088394,635.803772 178.133530,618.336853 195.163635,610.163147 
	C213.182449,601.514771 232.557678,605.266846 245.004654,619.809204 
	C249.600952,625.179199 252.693787,631.374695 255.242294,637.920532 
	C258.489990,646.262268 261.775909,654.597046 265.376343,662.789368 
	C266.691742,665.782410 266.253662,666.906250 263.207642,668.115417 
	C245.488708,675.148987 227.856064,682.399963 209.844696,689.734070 
z"/>
<path fill="#080808" opacity="1.000000" stroke="none" 
	d="
M795.167358,791.183594 
	C781.437927,800.634094 767.508545,800.281982 755.917603,790.423035 
	C743.861572,780.168274 739.789856,765.666992 745.957397,752.922485 
	C751.500244,741.468628 760.478882,734.550903 773.695251,734.157654 
	C774.776123,734.125427 776.247803,734.686157 776.750244,733.339355 
	C777.246399,732.009399 775.763062,731.406860 775.015320,730.621216 
	C768.365295,723.633850 761.678894,716.681274 755.015259,709.730957 
	C760.827393,703.415527 760.820557,703.422119 766.342346,709.171082 
	C783.524048,727.059692 800.667725,744.985352 817.948975,762.777344 
	C820.262451,765.159180 820.624023,766.451355 818.041138,769.023254 
	C815.239380,771.813049 813.774292,770.814270 811.843872,768.425659 
	C810.605103,766.892883 809.100342,765.574951 806.924438,763.353760 
	C807.891663,775.112366 803.949646,784.077820 795.167358,791.183594 
z"/>
<path fill="#070707" opacity="1.000000" stroke="none" 
	d="
M267.630859,269.592041 
	C270.383484,252.822769 285.968628,241.060089 302.304321,243.045609 
	C318.513550,245.015732 332.106537,261.332092 331.196442,277.726196 
	C330.274445,294.335571 316.081635,306.749817 297.978607,306.679199 
	C298.036713,308.625916 299.750763,309.337463 300.829681,310.415039 
	C306.481140,316.059357 312.023834,321.837280 317.997803,327.124146 
	C321.201691,329.959564 321.077667,331.650940 318.023468,334.370148 
	C315.990723,336.179993 314.988159,336.453217 312.940460,334.436401 
	C293.970612,315.752350 274.938507,297.130554 255.782410,278.637817 
	C253.394638,276.332733 254.351715,275.188171 256.172333,273.629913 
	C257.767334,272.264771 258.918884,269.406891 261.515533,272.622437 
	C263.020538,274.486176 264.949799,276.007294 267.569458,278.532013 
	C267.569458,274.818817 267.569458,272.417145 267.630859,269.592041 
z"/>
<path fill="#080808" opacity="1.000000" stroke="none" 
	d="
M897.686523,596.382690 
	C904.385803,608.832886 903.193237,620.626648 895.072083,631.310486 
	C887.119629,641.772461 875.992798,644.440674 863.359802,641.885803 
	C859.787109,641.163269 858.555725,640.025024 859.836304,635.937622 
	C864.252014,621.843628 868.016113,607.546631 872.319336,593.415588 
	C873.378174,589.938599 872.659973,589.120483 869.214783,588.972961 
	C851.861206,588.229797 839.155090,607.279419 846.099365,624.220520 
	C847.515930,627.676453 847.183655,628.851624 843.767822,630.286804 
	C839.509277,632.075989 839.728821,628.517395 838.945618,626.695312 
	C832.674316,612.103943 839.877747,591.930298 853.930603,584.292969 
	C868.377136,576.441711 887.480225,581.612610 897.686523,596.382690 
z"/>
<path fill="#080808" opacity="1.000000" stroke="none" 
	d="
M865.579712,501.464661 
	C868.692993,505.180420 864.349670,505.663574 863.270691,507.292999 
	C861.982483,509.238647 860.613892,507.045319 859.741577,506.192596 
	C849.578735,496.257782 847.251770,484.146057 850.851074,470.863037 
	C854.149475,458.690582 864.614197,450.335114 877.217285,448.962982 
	C889.921631,447.579865 900.844727,450.941162 908.111084,461.955933 
	C914.728760,471.987244 915.490417,482.874603 909.979553,493.705292 
	C904.870300,503.746918 895.934753,508.331085 885.148560,509.989594 
	C882.367310,510.417267 881.909607,509.168549 881.666321,506.801361 
	C880.152222,492.066498 878.330933,477.361328 876.983826,462.612274 
	C876.574524,458.132019 875.279297,457.329498 871.209351,458.999634 
	C856.772888,464.923859 852.129456,484.760315 862.270508,497.921234 
	C863.179688,499.101135 864.293945,500.123016 865.579712,501.464661 
z"/>
<path fill="#090909" opacity="1.000000" stroke="none" 
	d="
M180.858307,541.831055 
	C185.872513,537.688721 191.410416,535.709229 197.357666,534.410706 
	C200.357590,533.755676 200.989075,534.692139 201.363739,537.403931 
	C203.435562,552.399841 205.883621,567.346558 207.749878,582.366394 
	C208.279846,586.631470 209.746582,586.267700 212.747681,585.054260 
	C228.721344,578.595825 232.082520,555.783813 218.655502,543.288208 
	C216.300583,541.096558 216.020340,539.999695 218.156250,537.566345 
	C220.081909,535.372620 221.302887,535.590088 223.350647,537.208374 
	C233.041611,544.866821 237.398956,562.516907 232.596313,575.220093 
	C227.684738,588.211426 214.708344,596.440735 200.269547,595.721008 
	C185.977524,595.008606 175.030579,586.433411 171.601715,572.895935 
	C168.574661,560.944824 171.297546,550.505859 180.858307,541.831055 
z"/>
<path fill="#090909" opacity="1.000000" stroke="none" 
	d="
M658.250366,224.723145 
	C643.192993,204.376602 658.793213,175.754852 679.632263,173.536392 
	C691.917664,172.228561 701.978210,176.598877 709.211060,186.462418 
	C716.366577,196.220596 716.031311,206.853622 711.523804,217.734299 
	C710.157654,221.031967 708.417908,219.739883 706.484314,218.858170 
	C693.193481,212.797653 679.840454,206.866959 666.661743,200.571411 
	C662.797913,198.725647 661.403748,198.858215 660.734497,203.506027 
	C658.335754,220.165787 675.242065,234.943909 692.403198,230.595016 
	C695.747192,229.747589 696.969971,229.986465 697.932861,233.348145 
	C699.068665,237.313354 696.332581,237.495697 694.004028,237.981537 
	C679.500793,241.007645 667.967224,235.770142 658.250366,224.723145 
z"/>
<path fill="#080808" opacity="1.000000" stroke="none" 
	d="
M369.182648,792.154236 
	C367.688782,788.367615 368.844421,786.783447 372.453918,786.036743 
	C388.764404,782.663025 408.069305,794.555298 411.982513,810.565369 
	C416.051300,827.211914 405.538330,845.526794 389.205566,850.245422 
	C377.591278,853.600769 363.881104,848.924072 356.268585,839.010193 
	C348.925293,829.446899 348.267181,815.741211 354.283508,805.142578 
	C355.836395,802.407043 357.128235,803.332031 358.974365,804.309387 
	C372.315460,811.372070 385.751617,818.260071 398.983582,825.520569 
	C402.609894,827.510315 403.308136,826.160217 404.036743,823.015930 
	C407.899109,806.348083 391.604248,790.094116 374.287506,793.361328 
	C372.603790,793.679016 370.470612,795.641907 369.182648,792.154236 
z"/>
<path fill="#080808" opacity="1.000000" stroke="none" 
	d="
M234.965302,428.154510 
	C234.867188,424.346283 234.286148,420.937012 232.451172,418.182922 
	C230.433548,415.154755 232.014099,414.416595 234.304504,413.160889 
	C236.759735,411.814911 237.911850,412.282074 239.236984,414.732391 
	C244.808060,425.033783 242.991150,441.181793 234.877930,451.462769 
	C226.776367,461.729034 213.866852,465.650208 200.763596,461.824738 
	C187.464386,457.941986 178.871384,447.941010 177.585037,434.848297 
	C175.479828,413.421143 195.271622,396.801880 216.287170,402.184418 
	C219.571274,403.025543 219.452271,404.644775 218.799850,407.172302 
	C215.062637,421.650330 211.522980,436.180817 207.624313,450.614624 
	C206.691406,454.068481 207.354904,454.933533 210.822495,454.998169 
	C224.285049,455.249084 234.330719,444.366730 234.965302,428.154510 
z"/>
<path fill="#090909" opacity="1.000000" stroke="none" 
	d="
M342.427155,259.716370 
	C323.984833,250.059540 316.934479,229.457916 326.401642,213.730530 
	C338.535919,193.572388 366.249237,193.238663 379.207672,212.983994 
	C380.904266,215.569122 380.107422,216.489716 377.942322,217.885605 
	C365.363708,225.995239 352.955994,234.373810 340.280762,242.327209 
	C336.697571,244.575592 337.133026,245.860611 339.822784,248.320312 
	C352.380829,259.804413 374.288605,253.358002 379.987305,236.277283 
	C380.941711,233.416611 381.497467,231.839752 385.127899,232.982208 
	C388.869080,234.159515 387.982910,236.085052 387.205658,238.618011 
	C381.806488,256.212830 361.047089,266.179718 342.427155,259.716370 
z"/>
<path fill="#090909" opacity="1.000000" stroke="none" 
	d="
M687.698669,795.753418 
	C699.604919,776.084595 723.601074,771.230713 739.048096,785.077515 
	C749.603638,794.539551 753.509399,809.771362 748.474304,821.838501 
	C743.510925,833.733765 730.976501,841.735718 717.881958,840.956482 
	C706.658691,840.288635 698.830750,834.070557 692.887085,824.909180 
	C691.006104,822.009827 693.271057,821.573914 694.857483,820.605957 
	C707.338196,812.990784 719.830139,805.394043 732.315918,797.787048 
	C737.176758,794.825500 737.196594,794.459717 732.777283,790.604187 
	C720.632019,780.008301 699.744873,785.706604 693.395874,801.471558 
	C692.241333,804.338501 692.104126,807.007385 687.590210,805.168213 
	C682.622925,803.144409 686.522156,800.615417 686.543335,798.345947 
	C686.550415,797.587219 687.177124,796.834167 687.698669,795.753418 
z"/>
<path fill="#080808" opacity="1.000000" stroke="none" 
	d="
M839.005066,674.966064 
	C863.433899,686.504395 865.370605,713.560364 847.475403,729.632202 
	C833.601868,742.092163 812.288208,739.205383 800.512268,723.612061 
	C789.410034,708.910706 793.800598,687.330200 810.059509,677.165161 
	C819.140991,671.487305 828.720093,670.764893 839.005066,674.966064 
z"/>
<path fill="#080808" opacity="1.000000" stroke="none" 
	d="
M264.689392,309.291077 
	C277.076233,316.707977 283.783325,327.121857 281.670288,341.361847 
	C279.668823,354.849915 271.902191,364.572418 258.642273,368.831604 
	C245.494919,373.054626 229.938553,366.855072 222.079269,354.890564 
	C214.221207,342.927887 215.571320,327.904999 225.558884,316.173462 
	C234.848724,305.261505 248.663559,302.178925 262.135864,308.019073 
	C262.895782,308.348541 263.630310,308.736542 264.689392,309.291077 
z"/>
<path fill="#090909" opacity="1.000000" stroke="none" 
	d="
M785.265991,244.517212 
	C796.013916,244.272736 804.081543,248.947861 810.494934,256.887238 
	C817.886108,266.037048 818.408447,277.032135 811.106079,286.268799 
	C802.620300,297.002258 792.171753,305.942627 782.596802,315.680145 
	C779.696716,318.629456 779.027466,314.342712 777.376953,313.404175 
	C775.519531,312.347961 775.089294,311.007141 776.997559,309.156342 
	C783.336731,303.008118 789.504761,296.683472 795.738037,290.426117 
	C797.267029,288.891174 798.824341,287.383118 800.317810,285.814392 
	C809.201782,276.483246 809.732849,267.400665 801.910339,258.941986 
	C793.112610,249.428833 781.495605,248.098801 772.198792,256.353271 
	C764.112427,263.533020 756.637756,271.417938 749.112305,279.203430 
	C746.783325,281.612885 745.445374,282.084839 742.933167,279.385529 
	C740.763306,277.054138 739.972412,275.884857 742.691162,273.221283 
	C755.785034,260.393097 768.700134,247.378967 781.491821,234.248856 
	C783.969238,231.705902 785.244446,231.836716 787.693115,234.243561 
	C790.133972,236.642700 790.000854,238.115433 787.518494,240.038406 
	C786.476807,240.845413 785.640442,241.917542 784.508911,243.136856 
	C784.614075,243.677567 784.064026,244.595749 785.265991,244.517212 
z"/>
<path fill="#070707" opacity="1.000000" stroke="none" 
	d="
M290.870453,766.254150 
	C299.447357,762.023499 305.119293,754.815186 312.047668,749.155884 
	C314.750885,746.947815 317.526245,744.731750 319.791595,742.107483 
	C322.812500,738.607788 324.532623,739.966675 326.940857,742.832031 
	C328.809601,745.055481 328.540375,746.035645 326.506073,747.836670 
	C312.676849,760.080444 298.908234,772.394897 285.276001,784.857056 
	C282.711639,787.201294 281.377533,787.125977 279.046997,784.545959 
	C276.757812,782.011597 277.056366,780.604919 279.560028,778.783691 
	C281.137177,777.636230 282.462952,776.143311 284.683044,774.078430 
	C274.319702,774.800415 266.616760,771.029480 260.291382,764.097839 
	C249.928818,752.741943 249.925995,739.396301 260.960968,728.651611 
	C269.657471,720.184021 279.025482,712.410217 287.896301,704.115417 
	C291.264343,700.966064 291.903046,704.566895 293.532990,705.843384 
	C295.580627,707.447021 295.877625,708.791870 293.568146,710.780823 
	C285.626007,717.620178 277.861389,724.667236 270.082703,731.694458 
	C260.998138,739.901489 259.077484,747.517395 263.897400,755.790283 
	C269.868683,766.039368 279.489044,769.881165 290.870453,766.254150 
z"/>
<path fill="#080808" opacity="1.000000" stroke="none" 
	d="
M198.253983,478.814880 
	C208.505997,484.018982 218.340942,489.227966 228.374237,494.021790 
	C231.484940,495.508087 231.193695,497.657135 231.002075,500.111847 
	C230.844955,502.124634 231.539352,504.218719 228.552658,505.332916 
	C207.887070,513.042114 187.299728,520.961121 166.623215,528.837158 
	C165.650009,520.508850 165.648880,520.505859 173.217560,517.638794 
	C188.885208,511.703735 204.554214,505.772247 220.235458,499.834442 
	C220.030045,497.721405 218.206238,497.681885 217.038834,497.080078 
	C202.283966,489.474365 187.605347,481.703125 172.634827,474.543823 
	C167.966431,472.311310 169.108383,469.140564 169.632385,465.943939 
	C170.032013,463.506012 171.677307,465.287354 172.634567,465.770081 
	C181.079956,470.028717 189.491699,474.354065 198.253983,478.814880 
z"/>
<path fill="#080808" opacity="1.000000" stroke="none" 
	d="
M887.999268,526.168701 
	C897.449768,522.963989 906.522278,519.874146 915.686707,516.753052 
	C916.244629,525.170837 916.248962,525.183594 908.911011,527.681274 
	C892.901062,533.130737 876.886292,538.565857 859.893616,544.339783 
	C863.215881,546.189209 865.750977,547.610168 868.295044,549.014893 
	C880.648193,555.835876 893.004456,562.651123 905.358154,569.471069 
	C911.705261,572.975037 911.703857,572.977539 910.417419,580.541992 
	C908.794250,580.650330 907.641357,579.546814 906.376404,578.851990 
	C888.770142,569.181824 871.200745,559.444275 853.589233,549.783691 
	C851.268555,548.510742 849.506042,547.351135 850.210083,544.131714 
	C850.844666,541.229614 850.740906,538.743469 854.665283,537.546326 
	C865.763123,534.160828 876.650818,530.086426 887.999268,526.168701 
z"/>
<path fill="#080808" opacity="1.000000" stroke="none" 
	d="
M244.965286,396.922729 
	C221.349243,387.029510 198.120941,377.194794 174.814362,367.549255 
	C171.749542,366.280853 170.866287,365.319702 172.365372,361.956543 
	C173.838699,358.651154 174.923874,358.112640 178.377213,359.588898 
	C202.638962,369.960419 227.019302,380.054626 251.369186,390.219666 
	C254.277451,391.433746 257.017517,391.997742 254.905075,396.658783 
	C252.865860,401.158203 250.736130,399.397339 248.093872,398.168060 
	C247.192352,397.748657 246.251526,397.413727 244.965286,396.922729 
z"/>
<path fill="#080808" opacity="1.000000" stroke="none" 
	d="
M839.609253,658.250000 
	C834.434875,655.891052 829.679749,653.498718 824.747681,651.555481 
	C821.877625,650.424683 821.759277,648.930176 823.203674,646.770447 
	C824.365479,645.033386 824.047058,641.618347 828.181824,643.542603 
	C853.297363,655.231995 878.494629,666.747253 903.736816,678.161072 
	C907.561707,679.890564 905.029968,681.713440 904.432617,683.607483 
	C903.655396,686.071838 902.721680,687.409363 899.592407,685.941833 
	C879.768188,676.645264 859.844788,667.560120 839.609253,658.250000 
z"/>
<path fill="#080808" opacity="1.000000" stroke="none" 
	d="
M355.088074,778.123779 
	C345.039032,791.175110 335.100494,803.861755 325.416260,816.739685 
	C323.372681,819.457214 322.234253,819.776245 319.404724,817.656372 
	C316.339478,815.359985 316.752014,813.780823 318.961761,811.459961 
	C320.192657,810.167236 321.130096,808.595032 322.931763,806.159241 
	C314.293365,808.776184 307.091949,807.691650 300.501831,803.211609 
	C298.993195,802.185974 296.230164,801.441833 298.879211,798.957153 
	C300.516113,797.421692 300.691620,793.328369 305.010498,796.382874 
	C315.255707,803.628662 325.361908,801.814819 333.873260,791.456299 
	C340.198090,783.758728 346.236908,775.813782 352.115723,767.768982 
	C354.129059,765.013916 355.434814,765.237793 357.823456,767.138000 
	C360.155701,768.993347 361.958160,770.347473 358.996613,773.144531 
	C357.564270,774.497375 356.512939,776.253662 355.088074,778.123779 
z"/>
<path fill="#080808" opacity="1.000000" stroke="none" 
	d="
M684.109131,845.715454 
	C685.560181,849.480225 686.617004,853.024536 688.315735,856.228455 
	C690.173462,859.731995 688.071045,860.231323 685.592529,861.366882 
	C682.741699,862.673096 681.534058,862.158752 680.554932,859.169861 
	C679.870605,857.080872 679.549377,854.609009 677.373169,852.919556 
	C675.822144,861.702576 670.296631,867.019348 662.789551,870.723328 
	C660.950073,871.630981 659.382935,871.531311 659.225647,869.350220 
	C659.082642,867.367065 655.229553,865.420532 659.294678,863.237122 
	C672.435242,856.179077 675.481140,847.991943 670.236816,834.060181 
	C666.847900,825.057434 663.495972,816.026001 659.644104,807.218811 
	C657.885498,803.197510 660.771606,803.297302 662.782288,802.220886 
	C665.242676,800.903564 666.684082,801.033081 667.851440,804.110779 
	C673.085938,817.911560 678.590576,831.609741 684.109131,845.715454 
z"/>
<path fill="#080808" opacity="1.000000" stroke="none" 
	d="
M731.875732,215.814026 
	C734.605286,211.814606 737.328247,208.231796 739.633118,204.397583 
	C741.246216,201.714172 742.482056,201.192139 745.277771,203.124359 
	C748.095703,205.071915 748.811340,206.580750 746.378723,209.225220 
	C745.176575,210.532089 744.303040,212.141235 743.156311,213.792938 
	C744.498413,213.792938 745.668457,214.049576 746.673218,213.750717 
	C752.608948,211.985306 758.155212,213.111008 763.546692,215.746490 
	C768.965393,218.395279 768.978699,218.744446 765.337158,223.414017 
	C764.173950,224.905624 763.460144,225.219864 761.817078,224.085114 
	C750.000732,215.924423 738.750427,220.984970 731.831238,231.113159 
	C726.494141,238.925598 721.015015,246.645294 715.864441,254.578537 
	C714.033691,257.398529 712.761292,257.984802 709.851074,255.836594 
	C707.254456,253.919937 706.352600,252.847885 708.551758,249.767685 
	C716.459595,238.692017 724.007019,227.359024 731.875732,215.814026 
z"/>
<path fill="#080808" opacity="1.000000" stroke="none" 
	d="
M393.015381,205.108154 
	C389.546051,196.985535 386.363861,189.143478 382.744568,181.508621 
	C381.293945,178.448578 382.807281,177.805435 385.011505,176.988953 
	C387.088318,176.219666 389.203796,174.356140 390.370422,178.211121 
	C391.077332,180.546936 392.357422,182.709305 393.756012,185.773346 
	C395.276642,176.611877 400.062134,170.816788 407.407898,166.996429 
	C409.015625,166.160294 410.995697,164.800339 411.529327,167.754456 
	C411.892090,169.762512 415.889740,171.759003 411.335632,174.168137 
	C399.311676,180.528870 396.110168,189.746658 401.289490,202.520309 
	C405.025665,211.734680 408.967957,220.876419 413.182526,229.880066 
	C414.698608,233.118896 413.223083,233.883972 410.808624,234.824707 
	C408.490021,235.728073 406.608643,237.226730 405.081329,233.349716 
	C401.377106,223.946609 397.145905,214.751083 393.015381,205.108154 
z"/>
<path fill="#090909" opacity="1.000000" stroke="none" 
	d="
M467.444702,208.492752 
	C467.191132,203.810608 469.045624,201.001236 473.555145,200.826935 
	C477.226685,200.685043 479.530640,202.738403 480.000793,206.407166 
	C480.472534,210.088013 478.668579,212.635345 475.171570,213.512375 
	C471.285522,214.486969 468.836029,212.476746 467.444702,208.492752 
z"/>
<path fill="#080808" opacity="1.000000" stroke="none" 
	d="
M594.684021,822.692993 
	C598.192932,820.611877 601.135925,821.069946 603.449646,823.885742 
	C605.442139,826.310791 605.617798,829.095459 603.746643,831.737488 
	C601.996948,834.208008 599.470520,834.818298 596.658936,834.075012 
	C591.858032,832.805908 590.871338,827.823181 594.684021,822.692993 
z"/>
<path fill="#FDFDFD" opacity="1.000000" stroke="none" 
	d="
M856.358337,425.830627 
	C848.224243,421.138062 842.967224,414.477173 839.794739,406.128326 
	C837.085754,398.998993 834.648132,391.761963 831.763184,384.706390 
	C830.678101,382.052612 831.054993,381.011963 833.729309,380.044586 
	C853.064026,373.050507 872.355896,365.937866 891.650818,358.834198 
	C893.373718,358.199860 894.955383,357.039612 895.927673,359.884247 
	C898.929688,368.666931 902.625488,377.254059 905.017334,386.193939 
	C908.594604,399.565002 906.060669,411.904510 894.872009,420.898193 
	C883.399902,430.119659 870.533264,432.632629 856.358337,425.830627 
z"/>
<path fill="#FDFDFD" opacity="1.000000" stroke="none" 
	d="
M210.723602,614.535400 
	C226.539642,613.114563 237.583466,620.065308 244.532639,633.227600 
	C248.849030,641.403137 251.764572,650.313232 255.425629,658.843567 
	C256.214539,660.681763 255.878357,661.409180 254.032806,662.151062 
	C234.340683,670.067444 214.682022,678.067078 195.019623,686.057251 
	C193.726212,686.582886 192.682587,687.142761 191.950821,685.171936 
	C188.375534,675.542786 183.305969,666.429138 181.055023,656.358704 
	C176.382553,635.454651 188.584808,618.279236 210.723602,614.535400 
z"/>
<path fill="#FDFDFD" opacity="1.000000" stroke="none" 
	d="
M752.825378,757.304077 
	C758.695007,743.725281 771.075989,737.809387 783.201782,742.462341 
	C795.691345,747.254822 803.102844,761.224243 799.390259,772.974792 
	C795.530518,785.191284 782.670166,792.346069 770.618042,788.890991 
	C760.101624,785.876221 747.988464,772.866516 752.825378,757.304077 
z"/>
<path fill="#FCFCFC" opacity="1.000000" stroke="none" 
	d="
M322.964325,277.773956 
	C320.489777,292.872162 308.007202,302.477814 295.136810,299.607086 
	C280.717743,296.390961 271.206268,281.711761 274.955505,268.461182 
	C277.957977,257.849976 288.995850,250.075912 299.488525,251.182465 
	C311.350586,252.433426 321.836548,263.006897 322.940247,274.850037 
	C323.017242,275.676025 322.966675,276.513916 322.964325,277.773956 
z"/>
<path fill="#FBFBFB" opacity="1.000000" stroke="none" 
	d="
M869.598022,625.695923 
	C872.632507,615.274902 875.653809,605.276550 878.305603,595.181213 
	C879.214478,591.721069 880.384766,591.403870 883.308655,593.088501 
	C892.115479,598.162781 896.379395,608.375671 893.602234,618.323914 
	C890.744751,628.559937 882.328796,634.924255 872.044678,634.994202 
	C868.002441,635.021667 866.561707,633.840210 868.289856,629.886475 
	C868.816956,628.680664 869.064514,627.352661 869.598022,625.695923 
z"/>
<path fill="#FBFBFB" opacity="1.000000" stroke="none" 
	d="
M883.915649,468.065063 
	C883.714417,466.460632 883.543518,465.308411 883.381714,464.154907 
	C882.275208,456.263702 883.145569,455.564484 890.976929,458.048859 
	C900.255615,460.992371 906.062744,469.378143 906.040466,479.801514 
	C906.020142,489.355347 899.939758,497.624695 890.967224,500.513123 
	C888.657288,501.256744 887.317139,501.420135 887.036499,498.299408 
	C886.142517,488.359711 884.997925,478.442535 883.915649,468.065063 
z"/>
<path fill="#FBFBFB" opacity="1.000000" stroke="none" 
	d="
M198.163208,560.804443 
	C199.369965,568.964417 200.452194,576.696594 201.714157,584.399353 
	C202.078568,586.623596 201.544037,587.240906 199.260376,587.282104 
	C189.029434,587.466736 179.545471,579.120178 178.077377,568.430481 
	C176.496597,556.920227 183.202225,546.249390 193.410843,543.612366 
	C195.647263,543.034729 195.852707,543.729248 196.067490,545.557007 
	C196.648911,550.504761 197.414505,555.430847 198.163208,560.804443 
z"/>
<path fill="#FBFBFB" opacity="1.000000" stroke="none" 
	d="
M689.232178,181.305664 
	C702.950928,185.994446 709.496155,196.802475 706.217224,208.486145 
	C705.625916,210.593246 705.211609,211.243484 702.982117,210.207794 
	C690.360840,204.344788 677.673767,198.623398 664.993164,192.846542 
	C670.070435,183.499695 677.294556,180.018433 689.232178,181.305664 
z"/>
<path fill="#FAFAFA" opacity="1.000000" stroke="none" 
	d="
M396.746033,836.669067 
	C387.654602,845.068665 378.012909,846.142456 368.323059,840.079956 
	C359.885040,834.800659 356.216858,825.361755 358.702118,815.944031 
	C359.442230,813.139404 360.001190,811.966614 363.201630,813.721191 
	C374.107483,819.699768 385.126160,825.483826 396.246216,831.053833 
	C399.714233,832.790955 399.217163,834.271545 396.746033,836.669067 
z"/>
<path fill="#FAFAFA" opacity="1.000000" stroke="none" 
	d="
M202.870209,443.796692 
	C202.584427,444.829407 202.336960,445.450439 202.179886,446.093536 
	C200.320404,453.706940 199.513458,453.960663 193.109665,448.919312 
	C185.565186,442.979950 182.955460,433.311096 186.328094,423.793976 
	C189.500519,414.841797 197.983017,409.048676 207.350433,409.072876 
	C210.946121,409.082184 211.466949,410.270569 210.577057,413.538940 
	C207.878937,423.448578 205.471313,433.437317 202.870209,443.796692 
z"/>
<path fill="#FBFBFB" opacity="1.000000" stroke="none" 
	d="
M363.881134,208.916779 
	C371.392975,214.430695 371.395233,214.434143 364.027954,219.262222 
	C355.001007,225.177963 345.812073,230.864594 337.012451,237.100800 
	C333.085358,239.883896 332.158600,238.189651 331.136719,234.796097 
	C328.485107,225.990646 330.925842,217.171051 338.060120,211.424377 
	C345.909760,205.101440 354.438171,203.822021 363.881134,208.916779 
z"/>
<path fill="#FAFAFA" opacity="1.000000" stroke="none" 
	d="
M708.855347,830.362183 
	C708.410156,830.059875 708.252441,829.995422 708.120178,829.896790 
	C700.822083,824.457581 700.824768,824.461304 708.500244,819.787170 
	C717.867737,814.082764 727.346069,808.548401 736.536560,802.571594 
	C740.030884,800.299133 740.996155,801.620667 741.820068,804.725220 
	C744.218506,813.761475 742.288940,821.676514 735.094727,827.735291 
	C727.218628,834.368164 718.451843,835.559448 708.855347,830.362183 
z"/>
<path fill="#FDFDFD" opacity="1.000000" stroke="none" 
	d="
M805.509827,692.709961 
	C811.146484,683.526978 819.054382,679.311829 829.317322,681.128906 
	C839.504333,682.932678 847.093323,688.719543 850.355286,698.821533 
	C853.365356,708.143005 850.399658,716.245850 843.580811,722.919067 
	C835.254822,731.067261 823.171204,731.159546 812.587280,723.397827 
	C802.199585,715.779785 799.611389,705.006042 805.509827,692.709961 
z"/>
<path fill="#FDFDFD" opacity="1.000000" stroke="none" 
	d="
M257.235321,315.368805 
	C271.505707,322.155304 277.297668,333.932892 272.625610,346.119659 
	C267.767883,358.790710 255.159409,364.723267 242.699432,360.200592 
	C228.952881,355.210907 221.894287,342.377686 226.065155,329.957825 
	C230.550430,316.601715 242.742737,310.757965 257.235321,315.368805 
z"/>
<path fill="#FFFFFF" opacity="1.000000" stroke="none" 
	d="
M785.212036,244.338654 
	C784.791748,244.698456 784.085205,244.732285 783.378723,244.766098 
	C783.532104,244.429474 783.685486,244.092850 784.072998,243.580399 
	C784.513367,243.607269 784.719666,243.809967 785.212036,244.338654 
z"/>
</svg>