<svg version="1.1" id="Layer_1" xmlns="http://www.w3.org/2000/svg" xmlns:xlink="http://www.w3.org/1999/xlink" x="0px" y="0px"
	 width="100%" viewBox="0 0 1080 1080" enable-background="new 0 0 1080 1080" xml:space="preserve">
<path fill="#FFFFFF" opacity="1.000000" stroke="none" 
	d="
M596.000000,1081.000000 
	C398.856018,1081.000000 202.212051,1080.989014 5.568125,1081.085938 
	C1.945062,1081.087769 0.895265,1080.474854 0.896485,1076.569092 
	C1.007958,719.610291 1.009679,362.651489 0.882292,5.692751 
	C0.880802,1.517922 1.870950,0.896221 5.806227,0.897440 
	C362.598328,1.007956 719.390503,1.007787 1076.182617,0.899031 
	C1080.094604,0.897838 1081.120605,1.482926 1081.119019,5.681611 
	C1080.990112,362.473694 1080.989380,719.265869 1081.123047,1076.057983 
	C1081.124756,1080.443115 1080.020874,1081.103516 1075.942993,1081.100586 
	C916.128723,1080.982300 756.314392,1081.000000 596.000000,1081.000000 
z"/>
<path fill="#080808" opacity="1.000000" stroke="none" 
	d="
M515.929321,930.965698 
	C516.816956,933.139893 517.588501,934.943726 518.976562,938.189087 
	C520.446655,928.155090 521.725342,919.566040 522.959351,910.970520 
	C524.661865,899.111633 526.486328,887.266785 527.936829,875.376709 
	C528.508972,870.686462 531.474854,873.241638 533.471069,873.076538 
	C535.741516,872.888794 537.078186,873.492249 536.631165,876.522949 
	C532.916321,901.708984 529.416565,926.926758 525.732544,952.117493 
	C525.504211,953.678833 526.079651,956.646912 523.825562,956.513367 
	C521.253479,956.360779 518.120911,957.021729 516.524170,952.987488 
	C508.155182,931.843262 499.389191,910.856201 490.760345,889.812500 
	C488.884613,889.910889 488.403778,891.556335 487.535980,892.652283 
	C474.409149,909.230286 461.321655,925.839539 448.229858,942.445312 
	C447.011810,943.990173 446.085083,945.385132 443.489532,945.261780 
	C439.568756,945.075684 438.414093,943.839478 439.049255,939.882141 
	C440.947632,928.054382 442.495758,916.170593 444.207428,904.312622 
	C446.109253,891.137451 448.298553,877.996155 449.821350,864.777771 
	C450.365173,860.057007 452.852295,861.882751 455.276611,861.863831 
	C458.557739,861.838196 458.913940,863.074463 458.442566,866.147888 
	C455.541687,885.061951 452.909821,904.017334 450.210846,922.962219 
	C450.025055,924.266418 450.020264,925.596497 449.908051,927.258728 
	C452.079559,926.259460 452.970459,924.425354 454.154602,922.937927 
	C465.353088,908.869751 476.504639,894.764282 487.703644,880.696533 
	C491.213867,876.287170 493.664978,876.617310 495.778748,881.753967 
	C502.475220,898.026917 509.137695,914.313904 515.929321,930.965698 
z"/>
<path fill="#070707" opacity="1.000000" stroke="none" 
	d="
M924.375732,433.568604 
	C930.514954,432.421936 936.254822,431.467896 941.955505,430.319580 
	C944.059753,429.895721 944.808533,430.323730 945.171143,432.582031 
	C947.093994,444.557861 949.683350,456.443390 951.179443,468.467499 
	C954.037903,491.441040 940.647217,510.568878 919.239319,514.988953 
	C895.906250,519.806519 876.077820,508.308472 869.702148,485.148132 
	C866.274292,472.696136 864.690735,459.738953 862.198853,447.024658 
	C861.693359,444.445740 863.372009,444.377014 865.043335,444.082397 
	C884.683167,440.620178 904.321838,437.151306 924.375732,433.568604 
z"/>
<path fill="#070707" opacity="1.000000" stroke="none" 
	d="
M262.925537,722.006104 
	C265.219818,726.267273 269.526550,730.595764 268.896027,734.013306 
	C268.250732,737.510742 261.994263,738.871460 258.152252,741.082520 
	C238.993790,752.107971 219.731964,762.955322 200.648254,774.107849 
	C197.515549,775.938599 196.397491,775.404907 194.792786,772.452515 
	C189.555908,762.817505 183.757095,753.482666 178.668015,743.773682 
	C168.927673,725.190918 171.620834,705.776978 185.333115,692.860107 
	C205.511017,673.852600 234.338608,677.022339 250.072968,700.229553 
	C254.725967,707.092529 258.560883,714.510071 262.925537,722.006104 
z"/>
<path fill="#070707" opacity="1.000000" stroke="none" 
	d="
M889.283936,369.821289 
	C898.724304,364.974304 908.019897,360.206268 917.053528,354.985199 
	C920.482910,353.003204 921.175232,354.900787 922.481445,357.208923 
	C923.736267,359.426178 924.654663,360.837433 921.494690,362.547699 
	C897.269653,375.658691 873.117920,388.906738 849.045593,402.295898 
	C846.049377,403.962402 845.369751,402.383057 844.330872,400.390106 
	C843.282227,398.378540 841.487671,396.433685 845.110535,394.947357 
	C847.344727,394.030731 849.364136,392.590668 852.537659,390.783203 
	C840.650208,388.908875 833.237244,382.734436 828.781494,372.888184 
	C825.414734,365.448181 824.839417,357.829926 827.521301,350.091187 
	C833.028992,334.198547 852.523010,324.254517 868.401489,329.229370 
	C882.354187,333.600861 894.513794,350.756165 888.697327,368.269226 
	C888.971375,368.933533 888.066772,369.676758 889.283936,369.821289 
z"/>
<path fill="#070707" opacity="1.000000" stroke="none" 
	d="
M206.371307,345.941345 
	C200.505493,326.491302 215.712692,309.968109 228.863098,306.975952 
	C245.919327,303.095093 265.620239,315.515625 268.908813,332.314514 
	C271.782990,346.996582 262.714020,366.810028 241.237701,369.510315 
	C249.978745,375.159424 258.126709,380.423523 266.272705,385.690552 
	C269.659851,387.880646 269.423920,392.785004 265.887817,394.679443 
	C264.669678,395.332031 264.021240,394.378967 263.273193,393.898773 
	C240.482697,379.272003 217.739990,364.570465 194.906876,350.010681 
	C191.499237,347.837738 194.394928,346.436127 195.197250,344.933624 
	C196.004166,343.422455 196.690979,340.834808 199.458374,343.033966 
	C201.141602,344.371552 203.062256,345.410370 205.212799,346.694977 
	C205.829636,346.589203 206.120743,346.387482 206.371307,345.941345 
z"/>
<path fill="#080808" opacity="1.000000" stroke="none" 
	d="
M765.408508,796.759644 
	C759.676208,788.860352 753.981018,781.068481 747.883911,773.604919 
	C745.643982,770.863159 746.716675,769.755432 748.949158,768.332825 
	C750.874329,767.106140 752.155579,764.701660 754.769165,768.151367 
	C770.837708,789.360474 787.094482,810.428772 803.483643,831.391418 
	C805.857544,834.427856 803.816833,835.134399 802.096619,836.643494 
	C800.086487,838.406799 798.574707,839.333191 796.702881,836.325439 
	C795.454529,834.319641 794.190247,832.100464 791.681519,830.606628 
	C790.839355,846.773315 782.032593,856.247437 767.236450,860.365662 
	C755.301514,863.687500 742.896118,858.409424 734.683472,847.144104 
	C726.549622,835.986816 725.791687,822.968323 732.645630,812.142212 
	C739.630371,801.109558 751.657654,795.484741 764.072876,797.663330 
	C764.485229,797.131897 765.497131,797.764282 765.408508,796.759644 
z"/>
<path fill="#080808" opacity="1.000000" stroke="none" 
	d="
M266.147430,309.899872 
	C252.701279,300.370697 247.046341,287.471710 250.430573,274.612488 
	C256.592010,251.200562 284.256897,243.433517 301.986938,260.048462 
	C304.364685,262.276642 304.499664,263.607056 302.052094,265.887268 
	C290.228271,276.902466 278.560150,288.084778 266.803619,299.239349 
	C275.698730,307.690308 287.069794,308.493073 296.035950,302.282104 
	C302.887878,297.535706 307.765228,291.283722 308.192535,282.659851 
	C308.373230,279.012573 309.948395,278.930847 312.801239,278.911835 
	C316.712524,278.885834 316.041382,281.387299 315.874573,283.617920 
	C314.432709,302.900146 290.102325,323.936920 266.147430,309.899872 
z"/>
<path fill="#080808" opacity="1.000000" stroke="none" 
	d="
M737.029480,245.602020 
	C734.389465,262.941345 751.289795,275.712860 764.408569,274.446136 
	C766.932678,274.202423 768.124817,274.448212 768.044006,277.314087 
	C767.976746,279.699097 768.508789,281.684631 764.871460,282.073120 
	C746.608154,284.023529 720.187744,263.368042 731.092407,237.041153 
	C736.133301,224.871078 745.369080,216.865570 759.060913,216.042450 
	C772.328552,215.244827 782.125854,221.587418 788.423401,233.023102 
	C794.110657,243.350449 792.178284,257.191620 784.688171,266.318512 
	C782.622498,268.835510 781.486633,267.370850 779.915161,266.185211 
	C768.353210,257.462067 756.784912,248.747589 745.212463,240.038452 
	C740.093140,236.185730 740.080322,236.192047 737.926697,242.307892 
	C737.596130,243.246613 737.355408,244.216949 737.029480,245.602020 
z"/>
<path fill="#090909" opacity="1.000000" stroke="none" 
	d="
M432.820190,872.176270 
	C432.388306,891.249084 419.627319,906.014709 403.178680,906.938110 
	C379.992737,908.239685 364.099731,885.724121 372.780975,864.055359 
	C373.928284,861.191589 375.012085,860.777039 377.794556,861.960144 
	C391.543304,867.806152 405.422699,873.345459 419.157013,879.224121 
	C422.505249,880.657227 423.689941,880.403381 424.204926,876.508484 
	C426.467102,859.399597 409.166656,844.986145 391.884674,849.825867 
	C389.287903,850.553101 387.286224,851.554504 386.101105,847.608276 
	C384.846527,843.431030 387.573334,843.225464 389.988251,842.447693 
	C405.446442,837.469543 431.194214,848.551453 432.820190,872.176270 
z"/>
<path fill="#080808" opacity="1.000000" stroke="none" 
	d="
M149.170715,523.758789 
	C139.341278,500.778656 154.238037,478.407959 178.471893,478.965118 
	C182.164383,479.050018 183.329865,480.018524 182.961899,483.852783 
	C181.579056,498.263275 180.551453,512.707520 179.324539,527.133545 
	C178.865265,532.533752 179.171860,532.868896 184.530121,531.697937 
	C200.958405,528.107544 208.636612,506.914551 198.500961,492.449432 
	C196.415802,489.473572 196.942551,488.492218 199.535324,486.475983 
	C202.722443,483.997528 203.560303,486.533600 204.812332,488.216339 
	C215.157257,502.119690 210.996231,525.611816 196.518143,535.332275 
	C180.905853,545.814270 159.207993,540.646057 149.170715,523.758789 
z"/>
<path fill="#080808" opacity="1.000000" stroke="none" 
	d="
M902.330566,545.127319 
	C902.395264,544.320923 902.460999,543.988159 902.449158,543.658081 
	C902.351868,540.942383 904.292908,537.055908 901.985413,535.814636 
	C899.507507,534.481750 895.897400,536.207520 893.002258,537.567139 
	C879.380188,543.964294 875.155823,563.323425 884.809204,576.132507 
	C886.587341,578.491882 886.410217,579.492371 884.160828,581.030701 
	C882.300110,582.303162 881.133850,583.604675 878.948242,581.094360 
	C871.236694,572.237549 869.719177,555.944702 875.821350,543.869629 
	C881.876831,531.887024 893.876831,525.661560 908.152222,527.096863 
	C921.466919,528.435547 931.909424,536.946289 935.363098,549.273865 
	C941.217773,570.171875 924.965271,590.021790 903.436462,588.435669 
	C900.495117,588.218994 900.000183,587.147461 900.168091,584.479187 
	C900.983337,571.526917 901.605347,558.562378 902.330566,545.127319 
z"/>
<path fill="#070707" opacity="1.000000" stroke="none" 
	d="
M842.013550,701.516785 
	C835.468506,684.132751 845.529175,662.869385 862.621887,657.312439 
	C879.511536,651.821533 899.762878,662.414246 904.237427,679.533203 
	C907.584534,692.339050 903.681030,703.382446 893.628235,711.769958 
	C883.801208,719.968872 872.699585,719.882080 861.193481,715.315247 
	C857.950195,714.027954 858.998169,712.431824 859.935669,710.348877 
	C866.001465,696.870911 871.852966,683.293457 878.130432,669.915588 
	C880.030823,665.865662 878.729187,664.954346 875.025452,664.313416 
	C863.146667,662.257507 851.148865,671.044495 848.033142,684.305420 
	C847.147278,688.075989 846.924194,691.824402 847.865784,695.672791 
	C849.269348,701.409302 848.996521,701.612549 842.013550,701.516785 
z"/>
<path fill="#080808" opacity="1.000000" stroke="none" 
	d="
M724.808105,885.778564 
	C708.655396,904.319031 683.337524,901.538818 672.370789,880.439941 
	C670.949829,877.706116 671.259888,876.601501 674.054321,875.288391 
	C687.732971,868.860901 701.262939,862.115784 714.964233,855.738098 
	C718.321777,854.175293 718.066467,852.922241 716.053162,850.454895 
	C705.116394,837.050842 682.238708,840.430542 674.315125,856.853455 
	C672.947815,859.687317 672.342163,860.884155 668.800964,859.389282 
	C664.794739,857.698059 666.533447,855.604980 667.539307,853.596252 
	C673.813538,841.066833 684.633057,835.054688 698.053162,834.329956 
	C710.609497,833.651855 720.130249,839.712708 726.195618,850.742249 
	C732.658020,862.493713 733.042847,874.167297 724.808105,885.778564 
z"/>
<path fill="#080808" opacity="1.000000" stroke="none" 
	d="
M223.799667,645.574463 
	C220.000153,668.950867 197.094849,676.195557 182.684006,672.234375 
	C168.824310,668.424622 159.780701,656.203674 159.977783,641.371338 
	C160.151825,628.274597 169.985733,616.356323 183.152191,612.820984 
	C186.157776,612.013977 186.412003,613.578003 186.998795,615.557312 
	C191.291824,630.038086 195.758575,644.469482 199.845459,659.007812 
	C200.874496,662.668457 202.179108,662.508850 204.907532,660.963928 
	C219.984283,652.426941 220.002136,629.026550 204.721420,618.490662 
	C202.252075,616.788025 201.748184,615.921021 203.430573,613.247498 
	C205.182739,610.463013 206.667206,610.561646 208.958069,612.180298 
	C220.387161,620.255493 224.379135,631.669067 223.799667,645.574463 
z"/>
<path fill="#080808" opacity="1.000000" stroke="none" 
	d="
M435.312317,135.489700 
	C448.647278,132.315201 461.599731,129.313660 474.532196,126.228447 
	C477.306854,125.566505 478.821777,125.648079 479.667786,129.173050 
	C480.561401,132.896255 478.836182,133.331299 476.189636,133.935165 
	C463.065796,136.929581 449.973145,140.061981 436.834259,142.987686 
	C433.927704,143.634918 432.684235,144.226807 433.694733,147.784668 
	C436.053162,156.088577 437.884338,164.552017 439.646667,173.009689 
	C440.198792,175.659393 440.998810,176.046646 443.559265,175.409897 
	C454.847839,172.602676 466.207825,170.084061 477.524994,167.389557 
	C480.476501,166.686844 482.929108,165.698273 483.878021,170.290359 
	C484.887634,175.176056 481.379181,174.405380 479.020447,174.980072 
	C467.879089,177.694534 456.735565,180.418549 445.521576,182.804321 
	C442.500977,183.446960 442.295197,184.546249 442.929657,187.130539 
	C445.188080,196.329834 446.987305,205.649551 449.499176,214.775360 
	C450.575317,218.685013 448.659576,218.810867 445.993561,219.379532 
	C443.467957,219.918228 441.625488,221.025848 440.705048,216.951721 
	C435.065247,191.989059 429.121338,167.094666 423.176300,142.201996 
	C422.481049,139.290939 422.990814,137.970169 426.177460,137.609009 
	C429.129272,137.274460 432.010406,136.316284 435.312317,135.489700 
z"/>
<path fill="#080808" opacity="1.000000" stroke="none" 
	d="
M183.449829,436.609344 
	C169.205353,427.239716 164.598816,412.145447 171.072464,396.814056 
	C177.397186,381.835327 191.527802,374.366608 206.936783,377.858002 
	C223.218506,381.547119 233.908737,394.503326 232.922379,410.228027 
	C231.426132,434.081238 207.909332,450.414520 183.449829,436.609344 
z"/>
<path fill="#080808" opacity="1.000000" stroke="none" 
	d="
M831.264160,744.647583 
	C845.178650,752.158325 852.414429,764.715637 850.448181,777.550781 
	C848.226868,792.050903 837.398010,803.648376 823.696838,806.200989 
	C810.859314,808.592590 797.128296,801.988281 789.942871,789.966125 
	C783.204102,778.691223 784.366333,764.905029 792.961182,754.164734 
	C801.708496,743.233948 814.927185,739.040161 827.705200,743.165466 
	C828.806213,743.520813 829.858521,744.027222 831.264160,744.647583 
z"/>
<path fill="#070707" opacity="1.000000" stroke="none" 
	d="
M609.871826,176.856705 
	C607.689880,195.369751 598.164185,206.211121 582.694214,208.227539 
	C563.496216,210.729858 547.469788,198.470749 545.657837,179.897156 
	C543.798523,160.838593 556.976196,145.169098 575.684631,144.192459 
	C595.011353,143.183578 609.420959,156.756500 609.871826,176.856705 
z"/>
<path fill="#080808" opacity="1.000000" stroke="none" 
	d="
M628.975098,169.797867 
	C630.541443,164.825043 632.255981,160.303757 633.432495,155.646576 
	C634.361023,151.971222 636.514465,153.582184 638.262512,154.220108 
	C639.919922,154.824905 643.122681,154.499268 641.328064,158.174545 
	C640.342468,160.192947 639.974121,162.512741 639.023499,165.723114 
	C648.127930,160.064392 656.998047,159.481400 666.186279,162.729477 
	C680.069885,167.637375 686.329102,178.854507 682.352905,193.035629 
	C679.039490,204.852646 674.823120,216.414246 671.365112,228.194214 
	C670.266968,231.935242 668.311829,230.170670 666.518005,229.680588 
	C664.396667,229.101013 661.868835,228.901550 663.126404,225.259430 
	C666.484009,215.535416 669.615479,205.731628 672.715515,195.921219 
	C673.965149,191.966370 675.204712,187.945587 674.620789,183.696213 
	C673.500122,175.540161 668.154297,171.259430 660.781982,169.073959 
	C652.308289,166.561996 644.630615,167.717377 638.472778,174.637161 
	C635.769043,177.675537 634.249695,181.353424 633.019226,185.172531 
	C630.067444,194.334167 626.890564,203.430786 624.241028,212.678696 
	C623.133362,216.544968 621.225952,215.006500 619.047729,214.432602 
	C616.655762,213.802383 614.783386,213.446518 615.964783,209.961182 
	C620.439575,196.760635 624.608154,183.456314 628.975098,169.797867 
z"/>
<path fill="#080808" opacity="1.000000" stroke="none" 
	d="
M791.269104,292.252136 
	C787.250671,295.779297 783.366577,298.937714 779.786133,302.409424 
	C776.957153,305.152435 776.111816,302.287018 774.978088,300.893677 
	C773.878357,299.542267 771.010803,298.493561 774.023132,295.893768 
	C788.639221,283.279388 803.177429,270.572449 817.588806,257.725098 
	C820.175598,255.419067 820.991638,257.412659 822.022705,258.856201 
	C823.044189,260.286469 826.226990,261.382904 823.124878,263.907623 
	C821.241882,265.440186 819.117737,266.799469 817.576477,269.510773 
	C828.987366,269.070099 837.274170,274.177917 843.523743,282.915100 
	C850.535461,292.717865 850.414368,303.797424 842.348572,312.655640 
	C833.150391,322.757385 822.177002,331.018677 811.901367,339.989471 
	C808.657654,342.821228 808.380554,337.947449 806.564880,336.920105 
	C804.495483,335.749176 805.323120,334.444092 806.863647,333.114258 
	C814.801697,326.261719 822.659607,319.316223 830.543823,312.401306 
	C841.315552,302.953766 842.699402,293.803436 834.786682,284.363007 
	C826.163757,274.075134 814.534729,272.826385 803.991577,281.235046 
	C799.701355,284.656738 795.678772,288.413971 791.269104,292.252136 
z"/>
<path fill="#080808" opacity="1.000000" stroke="none" 
	d="
M298.133728,767.719421 
	C304.699524,772.639221 304.714020,772.652039 299.591858,778.440796 
	C293.411926,785.424805 287.159576,792.345093 281.019501,799.363770 
	C272.442078,809.168579 272.300049,818.152893 280.486023,826.240417 
	C289.831299,835.473389 301.624908,836.209595 310.660736,827.291931 
	C318.231262,819.820312 325.026825,811.560120 332.104553,803.594788 
	C333.926025,801.544983 335.107788,799.606262 338.212280,802.535645 
	C341.038208,805.202148 341.144012,806.612183 338.521057,809.489929 
	C326.406891,822.780518 314.514160,836.274170 302.635803,849.777466 
	C300.675415,852.006104 299.555267,853.172241 296.554108,850.599243 
	C293.345428,847.848450 294.170349,846.297180 296.578674,844.057312 
	C297.723206,842.992981 298.607819,841.649048 300.267426,839.633545 
	C290.024933,840.953369 282.050842,838.098816 275.177643,831.935303 
	C263.696686,821.639771 262.340637,808.406982 272.221741,796.564941 
	C280.425690,786.732849 289.237732,777.408142 298.133728,767.719421 
z"/>
<path fill="#080808" opacity="1.000000" stroke="none" 
	d="
M165.480774,554.751709 
	C179.440292,559.250732 192.961716,563.831360 206.642120,567.873901 
	C210.881363,569.126587 209.726273,572.195801 210.500595,574.793701 
	C211.235519,577.259399 210.026321,578.285095 208.061874,579.408813 
	C189.184799,590.207520 170.364014,601.104614 151.492355,611.993530 
	C149.118271,603.913391 149.123856,603.923157 156.029282,599.968201 
	C170.710342,591.559753 185.385025,583.140259 200.812119,574.295471 
	C190.030807,570.766113 180.013840,567.476990 169.989822,564.209290 
	C163.838394,562.204041 157.782532,559.734741 151.488174,558.388245 
	C145.546570,557.117249 143.503937,554.030396 144.446716,547.915527 
	C151.375656,550.166321 158.239807,552.396057 165.480774,554.751709 
z"/>
<path fill="#080808" opacity="1.000000" stroke="none" 
	d="
M920.425293,610.172852 
	C904.842468,613.003357 889.683655,615.767700 873.373840,618.742004 
	C876.407837,621.093506 878.575623,622.785645 880.755981,624.461426 
	C892.107727,633.186157 903.238281,642.224609 914.922974,650.478333 
	C919.866943,653.970642 920.228760,657.292969 917.503662,662.378418 
	C913.688171,659.459412 909.910278,656.579041 906.142822,653.685120 
	C892.675964,643.340576 879.248718,632.943848 865.709351,622.695190 
	C863.678894,621.158203 862.871399,619.793091 863.865417,617.346252 
	C864.781189,615.092102 864.007874,612.174072 867.855347,611.505005 
	C889.153687,607.801514 910.409241,603.852173 931.683044,600.006775 
	C931.964783,599.955933 932.292969,600.162415 932.597107,600.248047 
	C931.470825,608.541260 931.470825,608.541260 920.425293,610.172852 
z"/>
<path fill="#080808" opacity="1.000000" stroke="none" 
	d="
M702.041931,207.949341 
	C704.748901,202.768921 707.110596,197.804932 709.958191,193.137405 
	C711.870972,190.001984 711.088257,188.462784 707.947327,187.375214 
	C707.172302,187.106857 706.487854,186.587418 705.737854,186.234238 
	C703.475342,185.168900 701.215942,184.624252 703.287781,180.982574 
	C705.081604,177.829514 706.409973,178.313965 708.926819,179.709976 
	C715.120300,183.145187 715.200806,183.043839 718.851501,176.024918 
	C720.312988,173.215057 720.932556,169.876099 725.683350,172.742920 
	C728.906982,174.688232 728.712524,175.890991 727.164185,178.701462 
	C722.642639,186.908966 722.767883,186.976974 731.174561,191.404816 
	C732.789978,192.255707 734.326477,193.326355 736.029480,193.926422 
	C739.524414,195.157837 739.427185,196.973236 737.807373,199.874573 
	C736.546509,202.132919 735.455444,202.026764 733.563782,200.946182 
	C730.107117,198.971603 726.467224,197.308441 723.069824,195.242310 
	C720.425537,193.634125 719.005554,193.751373 717.473694,196.817108 
	C712.578857,206.613235 707.256165,216.194565 702.262756,225.942871 
	C697.463928,235.311295 701.651550,242.869736 712.329956,243.678574 
	C715.449951,243.914917 716.133240,244.592484 716.016724,247.591431 
	C715.887695,250.910706 713.931458,250.882706 711.684998,250.848862 
	C695.631836,250.607056 687.189270,236.657639 694.483704,222.394958 
	C696.902283,217.666016 699.427246,212.991440 702.041931,207.949341 
z"/>
<path fill="#070707" opacity="1.000000" stroke="none" 
	d="
M135.245178,452.594604 
	C131.232132,451.832306 127.367340,451.855377 129.536423,445.958832 
	C130.563644,443.166382 131.338043,442.873566 133.949280,443.461761 
	C160.329742,449.404022 186.731216,455.254395 213.155136,461.000275 
	C216.342026,461.693268 217.658188,462.587952 216.669037,466.205231 
	C215.810226,469.345917 215.049011,470.423523 211.431427,469.594086 
	C186.205978,463.810272 160.914459,458.314606 135.245178,452.594604 
z"/>
<path fill="#080808" opacity="1.000000" stroke="none" 
	d="
M839.139038,730.787415 
	C833.495483,727.224854 828.297241,723.602966 822.772034,720.578613 
	C819.253967,718.652954 821.205444,717.045593 822.359558,715.206665 
	C823.518921,713.359131 824.112122,711.029297 827.411438,713.129883 
	C850.671448,727.939453 874.008728,742.629639 897.447327,757.154663 
	C901.118408,759.429626 898.703430,760.972229 897.681519,762.958069 
	C896.483643,765.285889 895.523804,766.386902 892.553101,764.475952 
	C874.951965,753.153687 857.168274,742.115112 839.139038,730.787415 
z"/>
<path fill="#070707" opacity="1.000000" stroke="none" 
	d="
M535.069824,149.967407 
	C520.437866,151.617142 513.699219,158.877884 514.085754,173.030502 
	C514.362549,183.163757 515.160767,193.291656 516.040588,203.394577 
	C516.334045,206.764664 515.022095,207.293625 512.207031,207.185196 
	C509.791565,207.092148 507.402100,208.152649 507.189606,203.949509 
	C506.240784,185.182327 505.064667,166.424438 503.716278,147.681503 
	C503.446777,143.935638 505.455872,144.264420 507.857300,144.012848 
	C510.680878,143.717041 512.332336,144.180969 512.027466,147.557648 
	C511.854950,149.467606 512.213196,151.425491 512.336609,153.430130 
	C514.739319,151.259872 516.816772,149.289703 518.996033,147.439438 
	C521.572083,145.252319 524.635803,143.939529 527.859131,143.071777 
	C535.500916,141.014542 536.019165,141.505081 535.069824,149.967407 
z"/>
<path fill="#080808" opacity="1.000000" stroke="none" 
	d="
M339.691772,868.500122 
	C332.152924,871.215332 325.212555,869.936035 318.391510,866.422363 
	C316.289734,865.339722 315.427917,864.108032 317.344238,862.466370 
	C318.816895,861.204712 318.119934,856.950928 322.335388,859.145142 
	C334.457764,865.455261 343.804626,862.987122 351.363098,851.471313 
	C356.830048,843.142212 362.092865,834.666199 367.093781,826.050842 
	C368.973938,822.811829 370.476227,823.622437 372.792725,825.162659 
	C374.974457,826.613281 376.720612,827.344421 374.587860,830.677185 
	C364.649597,846.207397 354.983521,861.914734 345.435913,877.689270 
	C343.653564,880.634094 342.515137,880.982666 339.473846,879.205566 
	C336.067444,877.215210 336.573120,875.535156 338.480072,873.099060 
	C339.191071,872.190735 339.698578,871.123169 340.458557,869.813843 
	C340.104218,869.490356 340.795258,868.343323 339.691772,868.500122 
z"/>
<path fill="#070707" opacity="1.000000" stroke="none" 
	d="
M646.241760,878.867249 
	C644.235657,872.124573 642.508911,865.713989 640.405640,859.429565 
	C639.387146,856.386353 640.215271,855.314270 643.190918,854.671631 
	C645.651794,854.140198 647.605408,852.832642 648.715027,856.664490 
	C653.925476,874.657654 659.309021,892.601990 664.812561,910.507812 
	C665.799988,913.720276 664.537170,914.482544 661.843140,915.144409 
	C659.465149,915.728577 657.409241,916.867798 656.842896,913.050842 
	C656.506836,910.786255 655.515869,908.618835 654.524902,905.472839 
	C651.767029,913.905945 646.711243,919.325439 639.075073,922.146545 
	C637.384460,922.771118 635.095032,924.584229 634.685303,921.025146 
	C634.441162,918.904663 630.763000,916.362549 636.030396,914.590576 
	C647.472656,910.741394 652.070862,901.636414 649.331055,889.779297 
	C648.511108,886.231018 647.363586,882.758484 646.241760,878.867249 
z"/>
<path fill="#080808" opacity="1.000000" stroke="none" 
	d="
M319.156342,240.505585 
	C325.236359,250.913910 332.672974,259.905304 339.561432,269.274506 
	C341.707062,272.192902 340.769714,273.381165 338.377716,274.991669 
	C336.226501,276.440033 334.897491,277.881226 332.564850,274.588470 
	C321.797028,259.388885 310.776550,244.362717 299.554413,229.494965 
	C297.135956,226.290833 298.936188,225.520981 300.970459,223.858215 
	C303.227966,222.013000 304.734100,221.610352 306.308258,224.573029 
	C307.309662,226.457825 308.825745,228.069138 310.601624,230.464844 
	C311.081451,225.223785 311.321655,220.459778 314.113770,216.509720 
	C315.546967,214.482132 317.260498,212.654648 318.807648,210.705215 
	C321.653168,207.119858 323.772552,207.485870 326.105469,211.450638 
	C327.339569,213.547989 327.105103,214.336212 325.386261,215.814789 
	C316.747040,223.246368 315.134033,229.708786 319.156342,240.505585 
z"/>
<path fill="#090909" opacity="1.000000" stroke="none" 
	d="
M571.104370,877.050537 
	C570.254333,872.171997 572.003967,868.953003 576.590576,868.336243 
	C580.439331,867.818787 582.856995,870.219421 583.478882,874.033875 
	C583.958740,876.976624 582.732483,879.457764 580.044983,880.603516 
	C576.305603,882.197876 573.221741,881.008789 571.104370,877.050537 
z"/>
<path fill="#080808" opacity="1.000000" stroke="none" 
	d="
M387.465393,233.092773 
	C388.519714,228.476562 391.186554,226.281464 395.494568,227.341873 
	C399.261261,228.268997 400.821533,231.195679 400.090973,235.015411 
	C399.489410,238.160675 397.408813,240.011337 394.172119,240.020782 
	C389.909302,240.033218 387.985626,237.383575 387.465393,233.092773 
z"/>
<path fill="#FDFDFD" opacity="1.000000" stroke="none" 
	d="
M873.085754,463.805481 
	C872.672363,461.251465 872.603638,459.017700 871.885742,457.016846 
	C870.438232,452.982483 871.961121,451.768524 875.887756,451.113281 
	C895.709656,447.805481 915.502258,444.311920 935.260864,440.645294 
	C938.196777,440.100494 938.853149,440.699402 939.266235,443.478668 
	C940.437927,451.361145 942.104370,459.169342 943.316223,467.046722 
	C946.354370,486.796387 934.993774,503.140411 915.862366,506.759552 
	C897.083008,510.312134 880.633728,499.232330 876.152100,479.882782 
	C874.953979,474.710236 874.131592,469.450684 873.085754,463.805481 
z"/>
<path fill="#FDFDFD" opacity="1.000000" stroke="none" 
	d="
M237.976654,697.993774 
	C247.080078,706.904358 251.380219,718.502014 257.872131,728.689026 
	C258.905548,730.310608 257.935455,731.018005 256.692505,731.726440 
	C238.233185,742.247864 219.775436,752.772217 201.333252,763.323669 
	C200.244492,763.946655 199.202026,764.623657 198.431580,763.129150 
	C192.898712,752.396606 184.934189,742.832092 182.085541,730.819275 
	C178.573044,716.006897 184.296280,702.820679 197.163010,694.843140 
	C210.987274,686.272095 224.890930,687.273804 237.976654,697.993774 
z"/>
<path fill="#FDFDFD" opacity="1.000000" stroke="none" 
	d="
M862.679382,336.757446 
	C874.523254,338.657410 882.832764,348.070587 883.113342,359.449127 
	C883.400391,371.094757 874.671509,381.434265 862.395569,383.989532 
	C850.916138,386.378998 840.803223,381.136414 836.017822,370.315216 
	C831.537354,360.183533 834.500549,349.212433 843.626038,342.401947 
	C849.134216,338.291168 855.261780,336.086243 862.679382,336.757446 
z"/>
<path fill="#FFFFFF" opacity="1.000000" stroke="none" 
	d="
M889.324097,369.594788 
	C889.141968,370.180908 888.632385,370.740784 888.381287,370.642212 
	C887.526184,370.306458 888.069580,369.604401 888.412354,368.842407 
	C888.795837,368.858185 888.955505,369.062469 889.324097,369.594788 
z"/>
<path fill="#FCFCFC" opacity="1.000000" stroke="none" 
	d="
M252.564606,321.381104 
	C261.202820,329.762909 263.390472,338.768311 259.311249,348.264923 
	C255.150772,357.950714 246.536926,363.527832 236.586670,362.978241 
	C224.764908,362.325226 213.625702,352.275726 212.150589,340.932587 
	C210.745880,330.130829 218.202484,318.724182 228.985779,315.625519 
	C237.697235,313.122223 245.378952,315.684662 252.564606,321.381104 
z"/>
<path fill="#FFFFFF" opacity="1.000000" stroke="none" 
	d="
M206.113464,345.953064 
	C206.849991,346.305511 207.536438,346.959625 205.790588,347.002258 
	C205.668625,346.612762 205.787918,346.418915 206.113464,345.953064 
z"/>
<path fill="#FDFDFD" opacity="1.000000" stroke="none" 
	d="
M736.953552,831.472656 
	C734.179016,815.525452 747.635254,804.663818 758.524048,804.012756 
	C772.058716,803.203430 784.927368,815.576721 785.047668,829.519348 
	C785.162170,842.791870 773.563538,853.675781 760.031311,852.994080 
	C749.538086,852.465454 740.452576,844.144775 736.953552,831.472656 
z"/>
<path fill="#FFFFFF" opacity="1.000000" stroke="none" 
	d="
M765.265015,796.803528 
	C766.274353,797.279541 766.684326,797.932007 764.792969,797.815735 
	C764.669617,797.481689 764.834534,797.283325 765.265015,796.803528 
z"/>
<path fill="#F9F9F9" opacity="1.000000" stroke="none" 
	d="
M291.481201,267.401978 
	C282.835938,276.204102 274.318298,284.629791 266.130066,293.364288 
	C263.367310,296.311371 262.244537,295.485382 260.522675,292.595306 
	C255.194962,283.652740 256.412445,273.180511 263.868103,265.605316 
	C271.441010,257.910980 282.219635,256.558716 291.251648,261.870087 
	C294.310364,263.668823 294.470459,265.117218 291.481201,267.401978 
z"/>
<path fill="#FBFBFB" opacity="1.000000" stroke="none" 
	d="
M782.087036,254.845261 
	C781.082520,257.941925 779.942322,258.333435 777.465698,256.415894 
	C767.474731,248.680466 757.365540,241.093750 747.174316,233.623703 
	C744.689819,231.802582 744.854248,230.813034 747.064209,228.925186 
	C754.681274,222.418152 765.477234,221.698166 773.875854,227.373428 
	C783.150146,233.640442 786.145813,243.380066 782.087036,254.845261 
z"/>
<path fill="#FBFBFB" opacity="1.000000" stroke="none" 
	d="
M415.600098,893.615601 
	C406.727051,900.457825 397.844055,901.185791 388.930267,896.029785 
	C381.357391,891.649475 377.072266,883.016113 378.224976,874.568909 
	C378.675354,871.268433 379.141602,869.165161 383.575378,871.188110 
	C393.976776,875.933899 404.659607,880.062439 415.224457,884.450439 
	C421.251892,886.953918 421.251434,886.965027 417.221924,891.903931 
	C416.802399,892.418091 416.318146,892.879517 415.600098,893.615601 
z"/>
<path fill="#FAFAFA" opacity="1.000000" stroke="none" 
	d="
M173.271240,522.308716 
	C173.202484,523.102356 173.172165,523.433044 173.153473,523.764404 
	C172.660538,532.507935 171.317200,533.154602 163.567352,528.377930 
	C155.338776,523.306152 151.744110,513.970581 154.063278,503.695099 
	C156.025223,495.002350 164.067627,488.184631 173.112137,487.126251 
	C176.482941,486.731842 176.071045,488.554688 175.900696,490.601166 
	C175.033798,501.015747 174.176041,511.431061 173.271240,522.308716 
z"/>
<path fill="#FBFBFB" opacity="1.000000" stroke="none" 
	d="
M910.550903,580.012878 
	C908.459900,580.242432 906.830017,580.729736 906.995239,577.911377 
	C907.772034,564.659485 908.452942,551.401550 909.082947,538.141785 
	C909.242432,534.785828 911.300293,536.032410 912.888428,536.440674 
	C921.845886,538.743225 928.505127,546.747314 929.016418,555.710327 
	C929.635071,566.558105 924.501160,575.218933 915.286133,578.764709 
	C913.903503,579.296753 912.423462,579.575806 910.550903,580.012878 
z"/>
<path fill="#FAFAFA" opacity="1.000000" stroke="none" 
	d="
M885.213562,708.462708 
	C880.321411,710.560913 875.663879,711.057251 870.753235,710.101929 
	C867.945679,709.555786 867.653137,708.644470 868.809082,706.125427 
	C874.127563,694.535095 879.336121,682.892212 884.395691,671.186646 
	C885.582764,668.440247 886.635986,668.668274 888.731262,670.141663 
	C902.257996,679.654297 900.625610,699.500916 885.213562,708.462708 
z"/>
<path fill="#FAFAFA" opacity="1.000000" stroke="none" 
	d="
M684.802002,884.250977 
	C680.659546,879.359131 680.660278,879.360596 686.221680,876.663940 
	C696.644592,871.610107 707.141785,866.701050 717.446899,861.417480 
	C720.925049,859.634216 721.787476,860.547607 722.491089,863.961975 
	C724.355103,873.006714 720.551453,882.119263 712.505127,887.050232 
	C703.084961,892.823059 693.889526,891.971863 684.802002,884.250977 
z"/>
<path fill="#FAFAFA" opacity="1.000000" stroke="none" 
	d="
M168.733566,649.985535 
	C165.730713,637.941895 169.239899,628.771790 178.494171,623.427490 
	C180.899155,622.038696 182.211243,621.477600 183.214752,625.114014 
	C186.524582,637.107727 190.183304,649.008850 193.921082,660.878479 
	C194.988220,664.267212 194.086777,665.052917 190.737381,665.121155 
	C180.336746,665.332947 172.952423,660.482605 168.733566,649.985535 
z"/>
<path fill="#FDFDFD" opacity="1.000000" stroke="none" 
	d="
M222.570267,420.321350 
	C215.306305,432.874115 203.011398,436.470459 189.820740,430.170685 
	C177.826950,424.442596 172.978836,412.308685 177.839081,400.182739 
	C182.814896,387.768524 195.057510,382.531677 208.241699,387.177795 
	C221.568512,391.874207 228.009537,403.952545 223.986664,416.732910 
	C223.638779,417.838074 223.177292,418.907471 222.570267,420.321350 
z"/>
<path fill="#FCFCFC" opacity="1.000000" stroke="none" 
	d="
M801.946411,791.067932 
	C786.355591,776.062866 795.069580,756.412109 809.602295,751.094055 
	C820.189758,747.219727 833.133423,752.653625 839.439697,763.424927 
	C845.094116,773.082764 843.205261,784.566345 834.667969,792.436096 
	C826.115173,800.320190 814.592834,800.612000 804.542480,793.188110 
	C803.740540,792.595703 802.987122,791.937622 801.946411,791.067932 
z"/>
<path fill="#FCFCFC" opacity="1.000000" stroke="none" 
	d="
M599.295471,185.979660 
	C593.247803,199.583130 579.678223,204.719147 566.877441,198.547791 
	C554.751526,192.701797 550.365051,176.507706 557.406738,163.583694 
	C563.713440,152.008606 578.701477,148.164444 590.310120,155.144608 
	C599.877625,160.897446 603.186218,171.916763 599.295471,185.979660 
z"/>
<path fill="#FFFFFF" opacity="1.000000" stroke="none" 
	d="
M339.763794,868.606934 
	C340.291443,867.920837 341.104523,867.499695 340.806305,869.249756 
	C340.419373,869.309326 340.220581,869.119141 339.763794,868.606934 
z"/>
</svg>