<?xml version="1.0" encoding="UTF-8"?>
<svg xmlns="http://www.w3.org/2000/svg" xmlns:xlink="http://www.w3.org/1999/xlink" width="19px" height="19px" viewBox="0 0 19 18" version="1.1">
<g id="surface1">
<path style=" stroke:none;fill-rule:evenodd;fill:rgb(0%,0%,0%);fill-opacity:1;" d="M 4.492188 0.00390625 L 14.507812 0.00390625 C 16.785156 0.00390625 18.632812 1.832031 18.632812 4.085938 L 18.632812 13.914062 C 18.632812 16.167969 16.785156 17.996094 14.507812 17.996094 L 4.492188 17.996094 C 2.214844 17.996094 0.367188 16.167969 0.367188 13.914062 L 0.367188 4.085938 C 0.367188 1.832031 2.214844 0.00390625 4.492188 0.00390625 Z M 4.492188 0.00390625 "/>
<path style=" stroke:none;fill-rule:nonzero;fill:rgb(100%,100%,100%);fill-opacity:1;" d="M 11.917969 5.242188 L 13.207031 5.242188 L 10.390625 8.425781 L 13.699219 12.757812 L 11.109375 12.757812 L 9.078125 10.128906 L 6.753906 12.757812 L 5.464844 12.757812 L 8.476562 9.351562 L 5.300781 5.242188 L 7.957031 5.242188 L 9.792969 7.644531 Z M 11.464844 11.996094 L 12.179688 11.996094 L 7.570312 5.964844 L 6.804688 5.964844 Z M 11.464844 11.996094 "/>
</g>
</svg>
