<svg version="1.1" id="Layer_1" xmlns="http://www.w3.org/2000/svg" xmlns:xlink="http://www.w3.org/1999/xlink" x="0px" y="0px"
	 width="100%" viewBox="0 0 500 500" enable-background="new 0 0 500 500" xml:space="preserve">
<path fill="#000000" opacity="1.000000" stroke="none" 
	d="
M272.000000,501.000000 
	C182.666687,501.000000 93.833336,500.974731 5.000194,501.095825 
	C1.576097,501.100494 0.903036,500.423828 0.905301,497.000000 
	C1.013778,333.000092 1.013756,169.000122 0.905337,5.000245 
	C0.903074,1.576941 1.575799,0.903021 4.999878,0.905286 
	C168.999756,1.013775 332.999725,1.013761 496.999634,0.905353 
	C500.422668,0.903090 501.096985,1.575432 501.094727,4.999758 
	C500.986206,168.999634 500.986237,332.999603 501.094604,496.999512 
	C501.096893,500.422272 500.425598,501.102112 497.000275,501.096283 
	C422.167023,500.970001 347.333466,501.000000 272.000000,501.000000 
z"/>
<path fill="#E9E9E9" opacity="1.000000" stroke="none" 
	d="
M194.000000,77.969742 
	C237.984146,77.969742 281.468353,77.946526 324.952209,78.063210 
	C326.526398,78.067429 329.951477,76.202782 329.551941,80.221985 
	C329.276764,82.990234 330.692017,86.795830 324.891724,86.706009 
	C302.238739,86.355209 279.576050,86.676285 256.919739,86.459122 
	C252.801529,86.419640 251.722046,87.379044 251.730392,91.591209 
	C251.874893,164.397736 251.844406,237.204620 251.775909,310.011353 
	C251.774231,311.797394 253.060226,314.614929 250.593826,315.252899 
	C247.957001,315.934967 244.941162,315.675507 242.196182,315.207977 
	C240.686768,314.950928 241.316010,312.919067 241.310318,311.667694 
	C241.267212,302.171356 241.286636,292.674744 241.286636,283.178192 
	C241.286621,219.534729 241.245071,155.891159 241.378235,92.247978 
	C241.387299,87.912659 240.599442,86.374077 235.814072,86.434258 
	C212.992676,86.721298 190.165283,86.499023 167.341019,86.628723 
	C163.745026,86.649155 162.124100,86.185532 162.085571,81.871025 
	C162.042526,77.049370 164.815933,77.976303 167.509613,77.973312 
	C176.173080,77.963699 184.836533,77.969742 194.000000,77.969742 
z"/>
<path fill="#F1F1F1" opacity="1.000000" stroke="none" 
	d="
M268.603241,108.460922 
	C287.269714,111.081596 304.831390,115.699852 321.027374,124.781807 
	C346.228577,138.913498 361.219086,160.499725 367.212463,188.454712 
	C373.882019,219.563721 373.190613,250.374344 360.771240,280.050537 
	C348.410980,309.585510 325.656403,327.726562 295.370819,336.937408 
	C286.281921,339.701660 277.019409,341.666962 267.565918,342.543671 
	C265.768219,342.710388 262.800720,345.036011 262.104980,340.991180 
	C261.027313,334.726166 261.613068,333.791931 266.889862,333.231628 
	C277.506622,332.104401 287.832458,329.801788 297.921204,326.252441 
	C328.736877,315.411072 348.264282,294.103638 355.922424,262.506378 
	C362.581085,235.032913 362.530426,207.431992 353.999847,180.224976 
	C345.439453,152.922913 327.010529,135.035263 300.450348,125.199974 
	C289.336884,121.084625 277.799896,118.378258 266.044098,117.350426 
	C260.044556,116.825874 262.402679,113.104790 262.152405,110.394539 
	C261.775696,106.315094 264.980072,108.509911 266.693756,108.151176 
	C267.152008,108.055244 267.675812,108.272400 268.603241,108.460922 
z"/>
<path fill="#EAEAEA" opacity="1.000000" stroke="none" 
	d="
M184.089203,193.999969 
	C184.089310,166.016891 184.171814,138.533295 183.993881,111.051369 
	C183.969345,107.262520 184.973022,106.289719 188.692291,106.355797 
	C201.513687,106.583580 214.345764,106.628296 227.164703,106.339821 
	C231.449066,106.243416 230.935455,108.529587 231.048615,111.278526 
	C231.171066,114.252777 230.709579,115.752037 227.101868,115.647217 
	C217.782150,115.376442 208.446106,115.696732 199.123444,115.482231 
	C195.777191,115.405235 194.590652,116.130890 194.596481,119.782074 
	C194.709152,190.238510 194.699356,260.695190 194.614883,331.151672 
	C194.611298,334.144012 195.242111,335.128693 198.411240,335.054596 
	C208.066696,334.828949 217.740646,335.230652 227.387222,334.861176 
	C232.020309,334.683716 230.754593,337.472260 231.025894,339.918762 
	C231.374207,343.059784 230.454437,344.172607 227.043259,344.114594 
	C214.221542,343.896393 201.390198,343.855469 188.570694,344.131195 
	C184.698303,344.214478 183.995773,343.030029 184.005188,339.410370 
	C184.130951,291.107178 184.089218,242.803513 184.089203,193.999969 
z"/>
<path fill="#9B9B9B" opacity="1.000000" stroke="none" 
	d="
M119.400711,368.722443 
	C119.236206,372.353821 119.186028,375.735229 119.211311,379.571716 
	C119.360527,380.191040 119.434273,380.355286 119.745293,380.648468 
	C121.757683,380.909485 123.532806,381.041534 126.080070,381.231049 
	C117.986969,382.941650 117.986946,382.941650 117.985199,375.884186 
	C117.985039,375.220978 117.985146,374.557800 117.985184,373.894592 
	C117.985603,366.450073 117.985611,366.450073 125.596375,367.361877 
	C124.093567,368.611847 122.369164,367.684113 120.397705,368.087402 
	C119.828300,368.282318 119.671669,368.377411 119.400711,368.722443 
z"/>
<path fill="#9B9B9B" opacity="1.000000" stroke="none" 
	d="
M141.076920,373.915161 
	C143.076370,374.214874 144.751709,373.553040 146.226257,374.465637 
	C144.505951,376.360870 139.665405,372.491882 139.913940,378.227539 
	C140.144226,383.542114 144.510086,379.577606 146.669113,381.982147 
	C144.428894,381.982147 142.632156,381.896698 140.847687,382.008057 
	C139.308411,382.104095 138.840149,381.491241 138.862610,380.016815 
	C138.927216,375.777863 138.885391,371.537292 138.885391,366.383179 
	C140.878860,369.293640 139.018112,371.897797 141.076920,373.915161 
z"/>
<path fill="#9B9B9B" opacity="1.000000" stroke="none" 
	d="
M174.089081,375.082458 
	C170.768127,381.553497 175.506821,381.135803 179.375061,381.739655 
	C178.296066,381.820709 177.200500,381.809479 176.141129,381.999786 
	C172.703857,382.617157 171.444260,381.389160 171.805603,377.806030 
	C172.151382,374.377167 171.880219,370.886047 172.453247,367.032227 
	C172.200302,372.138031 173.290512,375.706146 180.566208,373.671570 
	C177.759293,375.458435 176.084183,374.779846 174.089081,375.082458 
z"/>
<path fill="#9B9B9B" opacity="1.000000" stroke="none" 
	d="
M241.880966,370.296021 
	C241.928162,369.029907 241.975021,368.225281 242.021881,367.420685 
	C242.225601,372.103485 243.252640,375.728729 249.572021,373.934479 
	C247.629028,376.483154 242.840790,372.452026 242.903015,378.032410 
	C242.966095,383.690460 247.823730,379.403168 249.349411,381.581665 
	C241.902420,382.559723 241.898209,382.559753 241.844345,375.242004 
	C241.833344,373.747345 241.867371,372.252350 241.880966,370.296021 
z"/>
<path fill="#616161" opacity="1.000000" stroke="none" 
	d="
M288.806366,367.855042 
	C289.057739,372.392273 288.968414,376.666107 288.837463,380.938629 
	C288.830536,381.164795 288.471710,381.380188 287.688690,382.265259 
	C286.471222,377.532318 287.323700,373.209229 286.930725,368.550598 
	C287.312317,367.657715 287.841858,367.489685 288.806366,367.855042 
z"/>
<path fill="#AAAAAA" opacity="1.000000" stroke="none" 
	d="
M189.057373,381.933960 
	C187.238113,377.211548 188.290985,372.464722 189.012100,367.674835 
	C189.012100,369.632233 189.011978,371.589661 189.012100,373.547058 
	C189.012543,380.490906 189.012589,380.490906 195.411957,381.953094 
	C193.447296,381.953094 191.482620,381.953094 189.057373,381.933960 
z"/>
<path fill="#9B9B9B" opacity="1.000000" stroke="none" 
	d="
M225.391083,368.730865 
	C225.229141,370.379089 225.190842,371.769470 225.267166,373.562042 
	C225.617798,374.402283 225.708572,374.870728 225.528397,375.700165 
	C225.208099,377.803131 225.034195,379.571167 224.860275,381.339203 
	C224.568588,381.337097 224.276886,381.334991 223.985184,381.332916 
	C223.985184,378.867889 223.985092,376.402863 223.985199,373.937836 
	C223.985535,366.405792 223.985565,366.405792 231.626755,367.355652 
	C230.116028,368.622559 228.380890,367.629456 226.412140,368.073853 
	C225.836243,368.268188 225.675476,368.370605 225.391083,368.730865 
z"/>
<path fill="#AAAAAA" opacity="1.000000" stroke="none" 
	d="
M259.328247,367.704651 
	C258.789795,371.002106 257.948212,374.180878 263.105072,374.896759 
	C256.580353,374.251068 260.220673,379.506042 258.221802,381.772827 
	C258.221802,376.693970 258.221802,371.972565 258.630829,367.073761 
	C259.165497,367.064941 259.291168,367.233459 259.328247,367.704651 
z"/>
<path fill="#898989" opacity="1.000000" stroke="none" 
	d="
M308.508240,376.268921 
	C309.310089,375.148468 309.865173,375.230621 310.088867,376.430420 
	C310.358429,377.876312 309.495514,377.998474 308.351959,377.997711 
	C305.830322,377.996063 303.235199,377.481171 300.871826,379.109253 
	C300.601837,377.106476 301.640686,375.816528 302.699066,373.796600 
	C302.928192,377.502350 305.237183,376.799377 307.611145,376.684082 
	C308.001526,376.602783 308.492523,376.517578 308.508240,376.268921 
z"/>
<path fill="#898989" opacity="1.000000" stroke="none" 
	d="
M342.342102,380.944946 
	C344.783112,380.953857 346.888397,380.953857 348.993652,380.953857 
	C349.006653,381.309052 349.019623,381.664246 349.032593,382.019440 
	C346.299500,382.019440 343.566406,382.022522 340.833313,382.017212 
	C340.163391,382.015930 339.475159,381.919922 339.263306,381.170898 
	C339.014862,380.292542 339.844360,380.054230 340.365143,379.789856 
	C341.507416,379.209900 340.871338,381.370544 342.342102,380.944946 
z"/>
<path fill="#A2A2A2" opacity="1.000000" stroke="none" 
	d="
M328.894592,379.356201 
	C331.397125,375.519165 328.987457,371.431854 331.050903,367.762421 
	C331.050903,371.965332 331.048401,376.168213 331.053497,380.371124 
	C331.054291,381.030365 330.956329,381.929443 330.179626,381.601959 
	C329.563080,381.342010 329.254120,380.352570 328.894592,379.356201 
z"/>
<path fill="#898989" opacity="1.000000" stroke="none" 
	d="
M319.820435,378.628326 
	C319.832794,375.364502 319.832336,372.551605 319.867676,369.739197 
	C319.878601,368.870453 320.115479,368.021454 321.217682,368.186493 
	C321.530426,368.233307 322.066681,369.072418 321.966156,369.256775 
	C319.861328,373.116516 321.893433,377.515747 320.257507,382.755646 
	C320.009155,380.662048 319.915283,379.870758 319.820435,378.628326 
z"/>
<path fill="#040404" opacity="1.000000" stroke="none" 
	d="
M367.667847,373.702057 
	C367.835541,376.397491 368.480896,378.963043 367.079865,382.290131 
	C365.538422,379.203918 365.935852,376.917755 366.602783,374.333832 
	C367.025269,373.850830 367.194550,373.663849 367.667847,373.702057 
z"/>
<path fill="#A2A2A2" opacity="1.000000" stroke="none" 
	d="
M357.006165,371.298096 
	C357.094604,369.730804 357.182983,368.615051 357.271362,367.499329 
	C357.444702,367.505219 357.618073,367.511139 357.791443,367.517029 
	C357.791443,372.171906 357.791443,376.826752 357.791443,381.481628 
	C357.529663,381.485626 357.267914,381.489624 357.006134,381.493591 
	C357.006134,378.245636 357.006134,374.997650 357.006165,371.298096 
z"/>
<path fill="#9B9B9B" opacity="1.000000" stroke="none" 
	d="
M367.976501,373.492859 
	C367.787750,373.963898 367.603607,374.000580 367.137695,374.037537 
	C366.863312,373.547150 366.875275,373.056458 366.877350,372.565735 
	C366.902863,366.480469 366.902466,366.480469 373.561279,367.582977 
	C369.735535,367.539246 366.773438,368.316650 367.976501,373.492859 
z"/>
<path fill="#040404" opacity="1.000000" stroke="none" 
	d="
M264.463745,368.858368 
	C264.427795,367.453613 265.070282,366.950928 265.886841,367.705078 
	C267.453949,369.152496 267.298981,370.735779 265.945984,372.333405 
	C264.523163,371.482758 265.204315,370.074249 264.463745,368.858368 
z"/>
<path fill="#9B9B9B" opacity="1.000000" stroke="none" 
	d="
M204.089325,378.633362 
	C201.850677,376.587067 202.658447,373.798584 203.652191,371.006836 
	C204.036606,373.379974 204.086990,375.769653 204.089325,378.633362 
z"/>
<path fill="#898989" opacity="1.000000" stroke="none" 
	d="
M289.529175,368.062317 
	C288.647491,368.112549 288.139221,368.106354 287.249695,368.097900 
	C285.864349,367.692719 284.575806,368.497589 283.416840,367.078430 
	C286.593567,367.078430 289.448151,367.078430 292.333527,367.078430 
	C291.946808,368.570007 290.712311,367.724823 289.529175,368.062317 
z"/>
<path fill="#0C0C0C" opacity="1.000000" stroke="none" 
	d="
M225.751495,376.040161 
	C225.354218,375.574341 225.326401,375.113586 225.340210,374.308533 
	C226.756714,374.097046 228.239365,373.577240 229.529526,374.662964 
	C229.068008,376.815918 227.288971,375.705566 225.751495,376.040161 
z"/>
<path fill="#111111" opacity="1.000000" stroke="none" 
	d="
M305.734344,367.065369 
	C305.717316,368.615265 308.274597,368.870178 307.207245,370.444458 
	C307.060699,370.660645 305.998840,370.453949 305.489777,370.192139 
	C303.361908,369.097748 304.362946,367.961212 305.734344,367.065369 
z"/>
<path fill="#040404" opacity="1.000000" stroke="none" 
	d="
M259.584595,368.006409 
	C259.204254,367.822540 259.168793,367.637787 259.086609,367.174683 
	C260.094513,365.854919 261.807404,365.436218 262.247345,366.722809 
	C262.810944,368.370911 260.858276,367.756653 259.584595,368.006409 
z"/>
<path fill="#040404" opacity="1.000000" stroke="none" 
	d="
M204.097595,379.038727 
	C205.332306,379.169769 206.460632,379.399841 206.550262,380.905762 
	C206.562820,381.116669 206.210098,381.529266 206.004974,381.543732 
	C204.758423,381.631683 204.370224,380.725647 204.064438,379.424011 
	C204.041260,379.107330 204.057297,379.019501 204.097595,379.038727 
z"/>
<path fill="#040404" opacity="1.000000" stroke="none" 
	d="
M211.932846,367.676331 
	C210.765182,367.772461 209.564667,367.497162 207.988129,367.135620 
	C209.783051,365.617310 210.943329,365.656647 211.932846,367.676331 
z"/>
<path fill="#040404" opacity="1.000000" stroke="none" 
	d="
M215.799316,377.105652 
	C215.845825,377.856995 215.721512,378.397980 215.106964,378.184662 
	C214.455063,377.958374 214.124939,377.339813 214.559525,376.711792 
	C214.881210,376.246948 215.375259,376.417816 215.799316,377.105652 
z"/>
<path fill="#040404" opacity="1.000000" stroke="none" 
	d="
M373.094025,374.077087 
	C372.392914,374.111450 371.956909,374.082977 371.520935,374.054504 
	C371.808929,372.617645 372.884277,373.115387 373.761505,373.160400 
	C373.869415,373.165924 373.968353,373.346313 374.071411,373.445679 
	C373.834015,373.635162 373.596588,373.824707 373.094025,374.077087 
z"/>
<path fill="#040404" opacity="1.000000" stroke="none" 
	d="
M212.029907,367.970642 
	C212.904495,368.117401 213.980759,367.709595 214.463318,368.812714 
	C214.539886,368.987823 214.338882,369.477173 214.168732,369.535187 
	C213.257294,369.845795 212.774643,369.166931 212.117065,368.317078 
	C211.965714,368.047760 212.007294,367.995300 212.029907,367.970642 
z"/>
<path fill="#898989" opacity="1.000000" stroke="none" 
	d="
M323.174591,371.428955 
	C323.101990,371.377167 322.827881,371.470825 322.827881,371.470825 
	C322.827881,371.470825 323.247192,371.480743 323.174591,371.428955 
z"/>
<path fill="#9B9B9B" opacity="1.000000" stroke="none" 
	d="
M204.040359,371.032288 
	C204.130753,370.493134 204.194809,369.938049 204.307098,369.392883 
	C204.311340,369.372345 204.782776,369.447998 205.036499,369.478821 
	C204.896683,369.900177 204.756866,370.321594 204.301636,370.866638 
	C203.986221,370.990265 204.022263,371.018097 204.040359,371.032288 
z"/>
<path fill="#040404" opacity="1.000000" stroke="none" 
	d="
M127.738144,369.595795 
	C127.859985,369.441528 128.067657,369.419586 128.275330,369.397644 
	C128.124878,369.507782 127.974426,369.617950 127.738144,369.595795 
z"/>
<path fill="#A2A2A2" opacity="1.000000" stroke="none" 
	d="
M326.707581,375.494568 
	C326.879242,375.997742 326.845795,376.258698 326.812347,376.519623 
	C326.595245,376.454895 326.378143,376.390198 326.161041,376.325470 
	C326.274872,375.967743 326.388672,375.610016 326.707581,375.494568 
z"/>
<path fill="#AAAAAA" opacity="1.000000" stroke="none" 
	d="
M262.914734,377.030945 
	C262.601349,377.798767 262.287445,377.628143 262.125946,377.193146 
	C262.051971,376.993896 262.213806,376.707062 262.268677,376.459961 
	C262.467682,376.551117 262.666718,376.642273 262.914734,377.030945 
z"/>
<path fill="#AAAAAA" opacity="1.000000" stroke="none" 
	d="
M263.496521,379.488800 
	C263.515198,379.486023 263.477844,379.491577 263.496521,379.488800 
z"/>
<path fill="#040404" opacity="1.000000" stroke="none" 
	d="
M119.900940,380.623047 
	C119.982559,380.777435 119.523010,380.810059 119.523010,380.810059 
	C119.523010,380.810059 119.201965,380.479645 119.244370,380.253235 
	C119.504387,380.125763 119.681908,380.273041 119.900940,380.623047 
z"/>
<path fill="#040404" opacity="1.000000" stroke="none" 
	d="
M128.474487,380.458435 
	C128.521393,380.432129 128.427597,380.484772 128.474487,380.458435 
z"/>
<path fill="#A2A2A2" opacity="1.000000" stroke="none" 
	d="
M329.036102,378.945740 
	C328.738739,378.891174 328.424652,378.864319 328.110535,378.837433 
	C328.157227,378.339813 328.393188,378.182312 328.916168,378.725189 
	C328.980560,379.025360 329.019348,378.973450 329.036102,378.945740 
z"/>
<path fill="#040404" opacity="1.000000" stroke="none" 
	d="
M128.459320,377.526367 
	C128.432846,377.479156 128.485794,377.573578 128.459320,377.526367 
z"/>
<path fill="#111111" opacity="1.000000" stroke="none" 
	d="
M308.405518,376.085815 
	C308.717407,376.299927 308.670685,376.530823 308.192688,376.657837 
	C308.047699,376.421356 308.142883,376.270905 308.405518,376.085815 
z"/>
<path fill="#111111" opacity="1.000000" stroke="none" 
	d="
M307.478149,373.460815 
	C307.523590,373.436096 307.432709,373.485565 307.478149,373.460815 
z"/>
<path fill="#0C0C0C" opacity="1.000000" stroke="none" 
	d="
M233.427094,368.541504 
	C233.382736,368.475098 233.471451,368.607910 233.427094,368.541504 
z"/>
<path fill="#0C0C0C" opacity="1.000000" stroke="none" 
	d="
M225.427002,368.888855 
	C225.071747,368.627960 225.151672,368.345123 225.752106,368.152954 
	C225.915054,368.409668 225.778244,368.617432 225.427002,368.888855 
z"/>
<path fill="#040404" opacity="1.000000" stroke="none" 
	d="
M119.437027,368.874939 
	C119.094765,368.626160 119.170906,368.355164 119.749870,368.173340 
	C119.903831,368.418579 119.771408,368.615326 119.437027,368.874939 
z"/>
</svg>