<svg version="1.1" id="Layer_1" xmlns="http://www.w3.org/2000/svg" xmlns:xlink="http://www.w3.org/1999/xlink" x="0px" y="0px"
	 width="100%" viewBox="0 0 500 500" enable-background="new 0 0 500 500" xml:space="preserve">
<path fill="#FFFFFF" opacity="1.000000" stroke="none" 
	d="
M301.000000,501.000000 
	C200.666687,501.000000 100.833382,501.000000 1.000054,501.000000 
	C1.000036,334.333405 1.000036,167.666794 1.000018,1.000143 
	C167.666565,1.000095 334.333130,1.000095 500.999756,1.000048 
	C500.999847,167.666519 500.999847,334.333038 500.999939,500.999786 
	C434.500000,501.000000 368.000000,501.000000 301.000000,501.000000 
M136.499969,489.839081 
	C142.832977,489.839081 149.168671,489.959320 155.498520,489.817810 
	C180.464417,489.259705 205.548996,489.944824 230.363937,487.687897 
	C264.568268,484.577026 294.834503,470.180298 320.951324,448.201172 
	C360.123566,415.235046 382.373291,373.041077 385.236786,321.573425 
	C387.887390,273.932007 373.713043,231.583633 342.533508,195.316589 
	C325.027924,174.954590 303.494965,159.767120 279.236237,148.343231 
	C277.779633,147.657288 275.931000,145.758163 275.906219,144.393738 
	C275.658630,130.765854 275.755890,117.131699 275.755890,103.142609 
	C297.180298,103.142609 318.289276,103.142609 339.680878,103.142609 
	C348.431458,74.113564 357.106049,45.336529 365.832733,16.386782 
	C342.772095,16.386782 320.497986,16.386782 298.139893,16.386782 
	C297.459991,18.456015 296.494019,20.308424 296.284729,22.242702 
	C295.723969,27.425140 293.102081,28.648359 288.000763,28.620600 
	C244.838470,28.385733 201.674347,28.486513 158.510773,28.486513 
	C156.733459,28.486513 154.956161,28.486513 152.999649,28.486513 
	C145.678879,53.476479 138.483246,78.039322 131.099045,103.245850 
	C155.161209,103.245850 178.241425,103.245850 201.247986,103.245850 
	C201.247986,113.714355 201.247986,123.762863 201.247986,133.998703 
	C199.043060,133.998703 197.215866,133.998703 195.388672,133.998703 
	C165.557465,133.998703 135.725342,134.112656 105.896126,133.869675 
	C101.666832,133.835205 100.226707,135.252762 99.187218,139.016037 
	C95.206017,153.429245 90.926529,167.760269 86.732658,182.114456 
	C84.194870,190.800461 81.609764,199.472656 78.919441,208.579163 
	C90.277199,208.579163 100.908112,208.579163 112.065826,208.579163 
	C112.065826,302.397736 112.065826,395.955109 112.065826,489.839081 
	C120.228340,489.839081 127.864174,489.839081 136.499969,489.839081 
z"/>
<path fill="#242021" opacity="1.000000" stroke="none" 
	d="
M135.999985,489.839081 
	C127.864174,489.839081 120.228340,489.839081 112.065826,489.839081 
	C112.065826,395.955109 112.065826,302.397736 112.065826,208.579163 
	C100.908112,208.579163 90.277199,208.579163 78.919441,208.579163 
	C81.609764,199.472656 84.194870,190.800461 86.732658,182.114456 
	C90.926529,167.760269 95.206017,153.429245 99.187218,139.016037 
	C100.226707,135.252762 101.666832,133.835205 105.896126,133.869675 
	C135.725342,134.112656 165.557465,133.998703 195.388672,133.998703 
	C197.215866,133.998703 199.043060,133.998703 201.247986,133.998703 
	C201.247986,123.762863 201.247986,113.714355 201.247986,103.245850 
	C178.241425,103.245850 155.161209,103.245850 131.099045,103.245850 
	C138.483246,78.039322 145.678879,53.476479 152.999649,28.486513 
	C154.956161,28.486513 156.733459,28.486513 158.510773,28.486513 
	C201.674347,28.486513 244.838470,28.385733 288.000763,28.620600 
	C293.102081,28.648359 295.723969,27.425140 296.284729,22.242702 
	C296.494019,20.308424 297.459991,18.456015 298.139893,16.386782 
	C320.497986,16.386782 342.772095,16.386782 365.832733,16.386782 
	C357.106049,45.336529 348.431458,74.113564 339.680878,103.142609 
	C318.289276,103.142609 297.180298,103.142609 275.755890,103.142609 
	C275.755890,117.131699 275.658630,130.765854 275.906219,144.393738 
	C275.931000,145.758163 277.779633,147.657288 279.236237,148.343231 
	C303.494965,159.767120 325.027924,174.954590 342.533508,195.316589 
	C373.713043,231.583633 387.887390,273.932007 385.236786,321.573425 
	C382.373291,373.041077 360.123566,415.235046 320.951324,448.201172 
	C294.834503,470.180298 264.568268,484.577026 230.363937,487.687897 
	C205.548996,489.944824 180.464417,489.259705 155.498520,489.817810 
	C149.168671,489.959320 142.832977,489.839081 135.999985,489.839081 
M306.881500,334.307007 
	C315.872406,291.775513 298.695435,253.340103 275.733643,235.757629 
	C275.733643,285.351288 275.733643,334.512817 275.733643,383.731567 
	C250.746902,383.731567 226.331024,383.731567 201.422089,383.731567 
	C201.422089,325.269531 201.422089,267.067535 201.422089,208.905151 
	C196.048279,208.905151 191.176804,208.905151 186.387024,208.905151 
	C186.387024,277.565399 186.387024,345.797882 186.387024,414.004303 
	C242.256958,419.420532 293.401184,390.940216 306.881500,334.307007 
z"/>
<path fill="#FBFBFB" opacity="1.000000" stroke="none" 
	d="
M306.776306,334.711182 
	C293.401184,390.940216 242.256958,419.420532 186.387024,414.004303 
	C186.387024,345.797882 186.387024,277.565399 186.387024,208.905151 
	C191.176804,208.905151 196.048279,208.905151 201.422089,208.905151 
	C201.422089,267.067535 201.422089,325.269531 201.422089,383.731567 
	C226.331024,383.731567 250.746902,383.731567 275.733643,383.731567 
	C275.733643,334.512817 275.733643,285.351288 275.733643,235.757629 
	C298.695435,253.340103 315.872406,291.775513 306.776306,334.711182 
z"/>
</svg>