<svg version="1.1" id="Layer_1" xmlns="http://www.w3.org/2000/svg" xmlns:xlink="http://www.w3.org/1999/xlink" x="0px" y="0px"
	 width="100%" viewBox="0 0 500 500" enable-background="new 0 0 500 500" xml:space="preserve">
<path fill="none" opacity="0" stroke="none" 
	d="
M284.000000,501.000000 
	C189.333359,501.000000 95.166710,501.000000 1.000051,501.000000 
	C1.000034,334.333405 1.000034,167.666794 1.000017,1.000140 
	C167.666565,1.000093 334.333130,1.000093 500.999756,1.000047 
	C500.999847,167.666519 500.999847,334.333038 500.999939,500.999786 
	C428.833344,501.000000 356.666656,501.000000 284.000000,501.000000 
M111.988235,209.864059 
	C111.992157,272.306732 111.985977,334.749420 112.004318,397.192108 
	C112.013313,427.829956 112.067802,458.467804 112.638969,489.731262 
	C113.461349,489.820312 114.283745,489.987274 115.106117,489.987152 
	C146.373398,489.982574 177.640686,489.962616 209.680176,489.969849 
	C224.569046,487.898224 239.919724,487.469147 254.257629,483.437927 
	C292.750244,472.615356 324.676361,451.224609 349.147980,419.259949 
	C361.770477,402.772552 371.802399,384.759674 377.505432,364.828888 
	C381.155823,352.071503 382.967163,338.746704 385.031250,325.586609 
	C387.903717,307.271942 385.068298,289.203186 381.159943,271.353088 
	C377.455658,254.435074 370.897766,238.587097 362.328064,223.473373 
	C350.028961,201.782455 333.949890,183.471924 313.593170,169.277176 
	C301.808502,161.059723 288.937439,154.400269 276.134399,146.176910 
	C276.070862,131.790451 276.007324,117.403984 276.888092,103.006989 
	C296.326141,103.004395 315.764954,103.077354 335.200989,102.877808 
	C337.065918,102.858665 340.085876,101.554222 340.578857,100.148338 
	C343.799072,90.965355 346.497925,81.598198 349.314178,72.275230 
	C353.223907,59.332470 357.167816,46.399052 360.931396,33.413609 
	C362.498840,28.005545 363.639435,22.473772 364.462585,16.323692 
	C342.902618,16.230453 321.342682,16.130762 299.782623,16.079853 
	C299.223236,16.078529 298.662628,16.610498 297.950012,17.651064 
	C296.625427,21.104546 295.300812,24.558029 293.042114,28.007200 
	C247.919754,28.004473 202.797363,27.993076 157.675049,28.036152 
	C156.143555,28.037613 154.612564,28.587006 152.936096,29.651722 
	C151.915573,32.956657 150.852615,36.249180 149.881516,39.568581 
	C144.259277,58.786190 138.694473,78.020699 133.027542,97.225090 
	C131.457428,102.545990 131.633591,102.985619 137.122635,102.992622 
	C158.441574,103.019829 179.760559,103.015862 201.012772,103.955650 
	C201.035858,113.961639 201.058945,123.967628 200.134537,133.989609 
	C168.879608,133.993988 137.624481,134.050766 106.370026,133.932785 
	C102.690742,133.918915 100.530510,134.784668 99.518585,138.618240 
	C97.538773,146.118561 95.167480,153.515503 92.960815,160.956024 
	C88.309052,176.640991 83.658936,192.326431 79.422676,208.775055 
	C90.272682,208.822174 101.122681,208.869278 111.988235,209.864059 
z"/>
<path fill="#231F20" opacity="1.000000" stroke="none" 
	d="
M112.101707,489.105652 
	C112.067802,458.467804 112.013313,427.829956 112.004318,397.192108 
	C111.985977,334.749420 111.992157,272.306732 111.725952,209.051086 
	C100.645164,208.162628 89.826660,208.087158 79.008148,208.011688 
	C83.658936,192.326431 88.309052,176.640991 92.960815,160.956024 
	C95.167480,153.515503 97.538773,146.118561 99.518585,138.618240 
	C100.530510,134.784668 102.690742,133.918915 106.370026,133.932785 
	C137.624481,134.050766 168.879608,133.993988 200.966980,133.747742 
	C201.866013,126.035881 202.018311,118.565163 201.953644,111.096321 
	C201.930344,108.403061 201.386063,105.714310 201.079529,103.023499 
	C179.760559,103.015862 158.441574,103.019829 137.122635,102.992622 
	C131.633591,102.985619 131.457428,102.545990 133.027542,97.225090 
	C138.694473,78.020699 144.259277,58.786190 149.881516,39.568581 
	C150.852615,36.249180 151.915573,32.956657 153.470093,29.311064 
	C199.135269,28.981375 244.266464,29.002066 289.397614,28.961519 
	C290.924072,28.960150 292.450043,28.342108 293.976227,28.011509 
	C295.300812,24.558029 296.625427,21.104546 298.485718,17.306885 
	C321.005646,16.974552 342.989899,16.986399 364.974121,16.998247 
	C363.639435,22.473772 362.498840,28.005545 360.931396,33.413609 
	C357.167816,46.399052 353.223907,59.332470 349.314178,72.275230 
	C346.497925,81.598198 343.799072,90.965355 340.578857,100.148338 
	C340.085876,101.554222 337.065918,102.858665 335.200989,102.877808 
	C315.764954,103.077354 296.326141,103.004395 276.104492,103.293045 
	C275.221405,117.124489 275.091095,130.669891 275.089294,144.215302 
	C275.089172,145.156677 276.044342,146.098190 276.555298,147.039642 
	C288.937439,154.400269 301.808502,161.059723 313.593170,169.277176 
	C333.949890,183.471924 350.028961,201.782455 362.328064,223.473373 
	C370.897766,238.587097 377.455658,254.435074 381.159943,271.353088 
	C385.068298,289.203186 387.903717,307.271942 385.031250,325.586609 
	C382.967163,338.746704 381.155823,352.071503 377.505432,364.828888 
	C371.802399,384.759674 361.770477,402.772552 349.147980,419.259949 
	C324.676361,451.224609 292.750244,472.615356 254.257629,483.437927 
	C239.919724,487.469147 224.569046,487.898224 209.019150,489.649841 
	C207.707779,489.220978 207.057373,489.016663 206.407089,489.017029 
	C174.971954,489.035431 143.536835,489.071564 112.101707,489.105652 
M186.158279,247.507889 
	C186.104874,249.332779 186.005035,251.157654 186.004791,252.982544 
	C185.997665,305.985779 186.000488,358.988983 186.055771,412.807617 
	C187.307358,413.538391 188.540726,414.859741 189.813675,414.899017 
	C195.722748,415.081482 201.719269,415.499268 207.543594,414.744934 
	C221.442551,412.944763 235.410797,411.129761 248.379684,405.252289 
	C277.939331,391.855927 297.422424,369.587738 305.967773,338.292328 
	C309.041046,327.037048 310.374542,315.466522 309.167877,303.519196 
	C307.539398,287.395142 303.355133,272.198792 294.783234,258.584961 
	C289.709290,250.526550 282.986023,243.506577 276.585571,235.414291 
	C276.056854,236.525497 275.066620,237.636383 275.065796,238.747971 
	C275.030548,287.129669 275.082916,335.511414 274.173553,383.954742 
	C251.661743,383.969574 229.149872,384.005585 206.638214,383.953064 
	C205.086166,383.949432 203.535660,383.285339 201.993607,382.000336 
	C201.995422,325.867615 202.004639,269.734924 201.959702,213.602234 
	C201.958481,212.073959 201.373550,210.546143 200.121841,209.007278 
	C198.793945,209.004562 197.465881,208.986893 196.138184,209.001526 
	C185.772522,209.115723 187.080338,207.787796 187.007263,217.891815 
	C186.936737,227.640533 186.951431,237.389893 186.158279,247.507889 
z"/>
<path fill="#908E8F" opacity="1.000000" stroke="none" 
	d="
M293.509155,28.009354 
	C292.450043,28.342108 290.924072,28.960150 289.397614,28.961519 
	C244.266464,29.002066 199.135269,28.981375 153.542709,28.925703 
	C154.612564,28.587006 156.143555,28.037613 157.675049,28.036152 
	C202.797363,27.993076 247.919754,28.004473 293.509155,28.009354 
z"/>
<path fill="#585657" opacity="1.000000" stroke="none" 
	d="
M112.370338,489.418457 
	C143.536835,489.071564 174.971954,489.035431 206.407089,489.017029 
	C207.057373,489.016663 207.707779,489.220978 208.633041,489.637268 
	C177.640686,489.962616 146.373398,489.982574 115.106117,489.987152 
	C114.283745,489.987274 113.461349,489.820312 112.370338,489.418457 
z"/>
<path fill="#575757" opacity="1.000000" stroke="none" 
	d="
M364.718353,16.660969 
	C342.989899,16.986399 321.005646,16.974552 298.562012,16.928232 
	C298.662628,16.610498 299.223236,16.078529 299.782623,16.079853 
	C321.342682,16.130762 342.902618,16.230453 364.718353,16.660969 
z"/>
<path fill="#6C6A6B" opacity="1.000000" stroke="none" 
	d="
M276.344849,146.608276 
	C276.044342,146.098190 275.089172,145.156677 275.089294,144.215302 
	C275.091095,130.669891 275.221405,117.124489 275.632324,103.298309 
	C276.007324,117.403984 276.070862,131.790451 276.344849,146.608276 
z"/>
<path fill="#928F90" opacity="1.000000" stroke="none" 
	d="
M79.215408,208.393372 
	C89.826660,208.087158 100.645164,208.162628 111.718185,208.577240 
	C101.122681,208.869278 90.272682,208.822174 79.215408,208.393372 
z"/>
<path fill="#A1A0A1" opacity="1.000000" stroke="none" 
	d="
M201.046143,103.489578 
	C201.386063,105.714310 201.930344,108.403061 201.953644,111.096321 
	C202.018311,118.565163 201.866013,126.035881 201.440735,133.739746 
	C201.058945,123.967628 201.035858,113.961639 201.046143,103.489578 
z"/>
<path fill="none" opacity="0" stroke="none" 
	d="
M201.984436,382.928375 
	C203.535660,383.285339 205.086166,383.949432 206.638214,383.953064 
	C229.149872,384.005585 251.661743,383.969574 274.969238,383.661011 
	C275.839569,381.711029 275.978943,380.054810 275.979523,378.398560 
	C275.995026,332.797363 275.984619,287.196198 276.042603,241.595062 
	C276.044952,239.736191 276.669678,237.878098 277.004425,236.019653 
	C282.986023,243.506577 289.709290,250.526550 294.783234,258.584961 
	C303.355133,272.198792 307.539398,287.395142 309.167877,303.519196 
	C310.374542,315.466522 309.041046,327.037048 305.967773,338.292328 
	C297.422424,369.587738 277.939331,391.855927 248.379684,405.252289 
	C235.410797,411.129761 221.442551,412.944763 207.543594,414.744934 
	C201.719269,415.499268 195.722748,415.081482 189.813675,414.899017 
	C188.540726,414.859741 187.307358,413.538391 186.451904,412.263672 
	C186.874924,356.859467 186.901810,301.999207 186.928696,247.138962 
	C186.951431,237.389893 186.936737,227.640533 187.007263,217.891815 
	C187.080338,207.787796 185.772522,209.115723 196.138184,209.001526 
	C197.465881,208.986893 198.793945,209.004562 200.564270,209.479462 
	C201.003540,266.125275 200.992813,322.298920 201.038620,378.472534 
	C201.039825,379.958069 201.655380,381.443115 201.984436,382.928375 
z"/>
<path fill="#A3A0A1" opacity="1.000000" stroke="none" 
	d="
M201.989014,382.464355 
	C201.655380,381.443115 201.039825,379.958069 201.038620,378.472534 
	C200.992813,322.298920 201.003540,266.125275 201.033752,209.484863 
	C201.373550,210.546143 201.958481,212.073959 201.959702,213.602234 
	C202.004639,269.734924 201.995422,325.867615 201.989014,382.464355 
z"/>
<path fill="#D2D2D2" opacity="1.000000" stroke="none" 
	d="
M186.543488,247.323425 
	C186.901810,301.999207 186.874924,356.859467 186.424866,411.855957 
	C186.000488,358.988983 185.997665,305.985779 186.004791,252.982544 
	C186.005035,251.157654 186.104874,249.332779 186.543488,247.323425 
z"/>
<path fill="#6C6A6B" opacity="1.000000" stroke="none" 
	d="
M276.794983,235.716980 
	C276.669678,237.878098 276.044952,239.736191 276.042603,241.595062 
	C275.984619,287.196198 275.995026,332.797363 275.979523,378.398560 
	C275.978943,380.054810 275.839569,381.711029 275.444763,383.630188 
	C275.082916,335.511414 275.030548,287.129669 275.065796,238.747971 
	C275.066620,237.636383 276.056854,236.525497 276.794983,235.716980 
z"/>
</svg>